<?xml version="1.0" encoding="UTF-8"?> <svg xmlns="http://www.w3.org/2000/svg" viewBox="0 0 396.45 113.47"><defs><style>.cls-1{fill:#fff;}.cls-2,.cls-4{fill:none;stroke:#fff;stroke-miterlimit:10;}.cls-2{stroke-width:0.6px;}.cls-3{fill:#a5001d;}.cls-4{stroke-width:3px;}</style></defs><g id="Layer_2" data-name="Layer 2"><g id="Layer_1-2" data-name="Layer 1"><g id="Layer_2-2" data-name="Layer 2"><g id="Layer_2-2-2" data-name="Layer 2-2"><path class="cls-1" d="M25.46,72.8c0-4.26,2.66-6.74,5.94-6.74a5.27,5.27,0,0,1,3.72,1.6l-1.24,1.5A3.3,3.3,0,0,0,31.4,68c-2.13,0-3.64,1.77-3.64,4.7s1.42,4.7,3.55,4.7a3.58,3.58,0,0,0,2.75-1.33L35.3,77.5a5.1,5.1,0,0,1-4.08,1.86C28,79.45,25.46,77.05,25.46,72.8Z"></path><path class="cls-1" d="M36.54,74.39c0-3.19,2.22-5.14,4.43-5.14,2.66,0,4,1.86,4,4.61a4.18,4.18,0,0,1-.09,1.06h-6.2a2.84,2.84,0,0,0,2.84,2.75h0A3.83,3.83,0,0,0,43.72,77l.8,1.42a6.35,6.35,0,0,1-3.37,1.07C38.58,79.45,36.54,77.58,36.54,74.39ZM43,73.51c0-1.51-.62-2.4-1.95-2.4a2.43,2.43,0,0,0-2.3,2.4Z"></path><path class="cls-1" d="M47.09,69.52H49l.18,1.33h.09a4.46,4.46,0,0,1,3.19-1.6c2,0,3,1.42,3,3.81v6.12h-2.3V73.42c0-1.6-.45-2.22-1.51-2.22a3.16,3.16,0,0,0-2.22,1.24v6.83h-2.3Z"></path><path class="cls-1" d="M58.35,76V71.38H56.93V69.69l1.51-.08L58.7,67h1.86v2.66h2.58v1.77H60.65V76c0,1.15.45,1.68,1.33,1.68a3.51,3.51,0,0,0,1-.17l.44,1.68a5,5,0,0,1-1.95.35C59.15,79.45,58.35,78,58.35,76Z"></path><path class="cls-1" d="M64.2,74.39c0-3.19,2.22-5.14,4.43-5.14,2.66,0,4,1.86,4,4.61a4.18,4.18,0,0,1-.09,1.06h-6.2a2.84,2.84,0,0,0,2.83,2.75h0A3.84,3.84,0,0,0,71.38,77l.8,1.42a6.35,6.35,0,0,1-3.37,1.07C66.33,79.45,64.2,77.58,64.2,74.39Zm6.47-.88c0-1.6-.62-2.49-2-2.49a2.43,2.43,0,0,0-2.3,2.4Z"></path><path class="cls-1" d="M74.84,69.52H76.7l.18,1.68H77a3.11,3.11,0,0,1,2.75-2,3.79,3.79,0,0,1,1.07.18l-.36,1.95a4.49,4.49,0,0,0-1-.18c-.8,0-1.69.53-2.31,2v5.94h-2.3Z"></path><path class="cls-1" d="M86.54,71.29H85.21V69.61l1.33-.09V68.45c0-2,.89-3.45,3.19-3.45a3.9,3.9,0,0,1,1.77.35L91.06,67A2.32,2.32,0,0,0,90,66.77c-.8,0-1.24.53-1.24,1.59v1.07h1.86V71.2H88.84v7.89h-2.3Z"></path><path class="cls-1" d="M91.68,74.39c0-3.28,2.22-5.14,4.61-5.14s4.61,1.86,4.61,5.14-2.22,5.06-4.61,5.06A4.7,4.7,0,0,1,91.68,74.39Zm6.92,0c0-2-.89-3.28-2.31-3.28S94,72.35,94,74.39s.88,3.19,2.3,3.19,2.31-1.24,2.31-3.19Z"></path><path class="cls-1" d="M103,69.52h1.86l.18,1.68h.09a3.09,3.09,0,0,1,2.74-2,3.79,3.79,0,0,1,1.07.18l-.36,1.95a4.49,4.49,0,0,0-1-.18c-.8,0-1.69.53-2.31,2v5.94H103Z"></path><path class="cls-1" d="M114.55,66.33h4.17c2.66,0,4.61.79,4.61,3.19a2.87,2.87,0,0,1-1.77,2.83v.09A3,3,0,0,1,124,75.55c0,2.57-2.13,3.81-5,3.81h-4.43Zm3.9,5.31c1.78,0,2.57-.7,2.57-1.86S120.14,68,118.45,68h-1.68v3.55Zm.36,5.77c1.86,0,2.92-.71,2.92-2.13s-1.06-2-2.92-2h-2v4.08Z"></path><path class="cls-1" d="M126.16,76.7V65.17h2.31V76.79c0,.53.27.71.53.71h.36l.26,1.68a2.77,2.77,0,0,1-1.24.18C126.79,79.45,126.16,78.38,126.16,76.7Z"></path><path class="cls-1" d="M130.77,74.39c0-3.28,2.22-5.14,4.61-5.14S140,71.11,140,74.39s-2.21,5.06-4.61,5.06A4.7,4.7,0,0,1,130.77,74.39Zm6.92,0c0-2-.89-3.28-2.31-3.28s-2.3,1.24-2.3,3.28.89,3.19,2.3,3.19S137.69,76.34,137.69,74.39Z"></path><path class="cls-1" d="M141.5,74.39a4.78,4.78,0,0,1,4.43-5.14h.45a4.16,4.16,0,0,1,2.83,1.07l-1.06,1.5a2.24,2.24,0,0,0-1.6-.71c-1.59,0-2.66,1.24-2.66,3.28s1.07,3.19,2.58,3.19a3.24,3.24,0,0,0,1.95-.79l.88,1.5a4.71,4.71,0,0,1-3.19,1.16C143.63,79.45,141.5,77.58,141.5,74.39Z"></path><path class="cls-1" d="M151.08,65.26h2.21V74h.09L157,69.52h2.49l-3.28,3.9,3.63,5.76h-2.48l-2.48-4.26-1.51,1.78v2.48h-2.22Z"></path><path class="cls-1" d="M160.38,74.39a4.79,4.79,0,0,1,4.44-5.14h.44a4.2,4.2,0,0,1,2.84,1.07L167,71.82a2.22,2.22,0,0,0-1.59-.71c-1.6,0-2.66,1.24-2.66,3.28s1.06,3.19,2.57,3.19a3.19,3.19,0,0,0,2-.79l.88,1.5a5.55,5.55,0,0,1-3.1,1.24C162.42,79.45,160.38,77.58,160.38,74.39Z"></path><path class="cls-1" d="M170,65.26h2.21v5.5a4.71,4.71,0,0,1,3.11-1.51c2,0,3,1.42,3,3.81v6.12H176V73.42c0-1.6-.45-2.22-1.51-2.22a3.35,3.35,0,0,0-2.31,1.24v6.83h-2.3Z"></path><path class="cls-1" d="M180.33,76.61c0-2,1.68-3.19,5.67-3.64,0-1.06-.44-1.86-1.77-1.86a5.18,5.18,0,0,0-2.75,1l-.8-1.51a7.94,7.94,0,0,1,4-1.33c2.4,0,3.64,1.51,3.64,4.17v5.76h-1.86l-.18-1.06h-.09a4.76,4.76,0,0,1-3,1.33,2.7,2.7,0,0,1-2.84-2.57Zm5.67,0V74.39c-2.66.36-3.54,1.07-3.54,2s.62,1.24,1.42,1.24A2.54,2.54,0,0,0,186,76.61Z"></path><path class="cls-1" d="M190.61,66.5a1.38,1.38,0,1,1,1.51,1.24H192a1.25,1.25,0,0,1-1.42-1.24Zm.27,3h2.3v9.75h-2.3Z"></path><path class="cls-1" d="M195.84,69.52h1.86l.18,1.33H198a4.46,4.46,0,0,1,3.19-1.6c2,0,3,1.42,3,3.81v6.12h-2.31V73.42c0-1.6-.44-2.22-1.51-2.22a3.14,3.14,0,0,0-2.21,1.24v6.83h-2.31Z"></path><path class="cls-1" d="M211.09,66.33h4.34c2.66,0,4.79,1,4.79,3.81a3.72,3.72,0,0,1-2.57,3.72l3.1,5.41h-2.57l-2.75-5h-2v5h-2.3V66.33Zm4.17,6c1.77,0,2.74-.71,2.74-2.21s-1-2-2.74-2H213.4v4.25h1.86Z"></path><path class="cls-1" d="M221.82,74.39c0-3.19,2.21-5.14,4.43-5.14,2.66,0,4,1.86,4,4.61a4.18,4.18,0,0,1-.09,1.06h-6.21a2.84,2.84,0,0,0,2.84,2.75h0A3.84,3.84,0,0,0,229,77l.8,1.42a6.35,6.35,0,0,1-3.37,1.07C223.86,79.45,221.82,77.58,221.82,74.39Zm6.47-.88c0-1.51-.62-2.4-1.95-2.4a2.44,2.44,0,0,0-2.31,2.4Z"></path><path class="cls-1" d="M231.48,78.12l1.06-1.51a4.19,4.19,0,0,0,2.66,1.06c1.07,0,1.51-.53,1.51-1.15,0-.8-1.06-1.15-2-1.6-1.24-.44-2.75-1.24-2.75-2.83s1.42-2.93,3.55-2.93a5.22,5.22,0,0,1,3.19,1.16l-1.06,1.41a3.18,3.18,0,0,0-2.13-.79c-1,0-1.42.44-1.42,1.06,0,.8,1,1.06,2,1.42,1.33.53,2.84,1.15,2.84,2.92s-1.33,3-3.82,3A5.35,5.35,0,0,1,231.48,78.12Z"></path><path class="cls-1" d="M240.26,74.39c0-3.19,2.21-5.14,4.43-5.14,2.66,0,4,1.86,4,4.61a4.18,4.18,0,0,1-.09,1.06h-6.21a2.84,2.84,0,0,0,2.84,2.75h0a3.84,3.84,0,0,0,2.22-.71l.79,1.42a6.29,6.29,0,0,1-3.36,1.07C242.38,79.45,240.26,77.58,240.26,74.39Zm6.56-.88c0-1.51-.62-2.4-1.95-2.4a2.44,2.44,0,0,0-2.31,2.4Z"></path><path class="cls-1" d="M250.27,76.61c0-2,1.69-3.19,5.77-3.64,0-1.06-.45-1.86-1.78-1.86a5.21,5.21,0,0,0-2.75,1l-.79-1.51a7.91,7.91,0,0,1,4-1.33c2.39,0,3.63,1.51,3.63,4.17v5.76h-1.95l-.18-1.06h-.09a4.74,4.74,0,0,1-3,1.33,2.7,2.7,0,0,1-2.84-2.57Zm5.68,0V74.39c-2.66.36-3.55,1.07-3.55,2s.62,1.24,1.42,1.24A2.56,2.56,0,0,0,256,76.61Z"></path><path class="cls-1" d="M260.82,69.52h1.86l.18,1.68H263a3.26,3.26,0,0,1,2.75-2,3.72,3.72,0,0,1,1.06.18l-.44,1.95a4.56,4.56,0,0,0-1-.18c-.79,0-1.68.53-2.3,2v5.94h-2.22Z"></path><path class="cls-1" d="M267.47,74.39a4.78,4.78,0,0,1,4.43-5.14h.45a4.16,4.16,0,0,1,2.83,1.07l-1.06,1.5a2.24,2.24,0,0,0-1.6-.71c-1.59,0-2.66,1.24-2.66,3.28s1.07,3.19,2.58,3.19a3.24,3.24,0,0,0,1.95-.79l.88,1.5a4.71,4.71,0,0,1-3.19,1.16C269.51,79.45,267.47,77.58,267.47,74.39Z"></path><path class="cls-1" d="M277,65.26h2.31V68.9l-.09,1.86a4.71,4.71,0,0,1,3.1-1.51c2,0,3,1.42,3,3.81v6.12h-2.31V73.42c0-1.6-.44-2.22-1.5-2.22a3.14,3.14,0,0,0-2.22,1.24v6.83H277Z"></path><path class="cls-1" d="M25.46,96.56c0-4.26,2.66-6.74,5.94-6.74a5.3,5.3,0,0,1,3.72,1.59l-1.24,1.51a3.3,3.3,0,0,0-2.48-1.15c-2.13,0-3.64,1.77-3.64,4.7s1.42,4.69,3.55,4.69a3.6,3.6,0,0,0,2.75-1.32l1.24,1.41a5.11,5.11,0,0,1-4.08,1.87C28,103.2,25.46,100.81,25.46,96.56Z"></path><path class="cls-1" d="M36.45,98.15c0-3.28,2.22-5.14,4.61-5.14s4.61,1.86,4.61,5.14-2.21,5-4.61,5A4.7,4.7,0,0,1,36.45,98.15Zm6.92,0c0-2-.89-3.28-2.31-3.28s-2.3,1.24-2.3,3.28.88,3.19,2.3,3.19S43.37,100.1,43.37,98.15Z"></path><path class="cls-1" d="M47.89,93.28h1.86l.18,1.32H50A4.22,4.22,0,0,1,52.94,93a2.58,2.58,0,0,1,2.66,1.77A4.33,4.33,0,0,1,58.7,93c2,0,3,1.42,3,3.81v6H59.5V97.09c0-1.6-.44-2.22-1.51-2.22a2.82,2.82,0,0,0-2,1.24v6.83h-2.3V97.18c0-1.6-.44-2.22-1.51-2.22a3,3,0,0,0-2,1.24V103H47.8V93.28Z"></path><path class="cls-1" d="M64.47,93.28h1.86l.17,1.06h.09a5.12,5.12,0,0,1,2.93-1.24c2.39,0,3.81,2,3.81,5,0,3.37-2,5.23-4.17,5.23a4.48,4.48,0,0,1-2.48-1.06l.09,1.59v3h-2.3ZM70.94,98c0-2-.62-3.1-2.13-3.1a3.28,3.28,0,0,0-2.13,1.06v4.53a2.74,2.74,0,0,0,1.95.79c1.33.09,2.31-1.06,2.31-3.28Z"></path><path class="cls-1" d="M75.55,93.28h1.86L77.59,95h.08A3.27,3.27,0,0,1,80.42,93a3.79,3.79,0,0,1,1.07.18l-.36,2a4.49,4.49,0,0,0-1-.18c-.8,0-1.69.53-2.31,2v5.94h-2.3Z"></path><path class="cls-1" d="M82.11,98.15C82.11,95,84.32,93,86.54,93c2.66,0,4,1.86,4,4.61a4.22,4.22,0,0,1-.09,1.06H84.23a2.84,2.84,0,0,0,2.84,2.75h0a3.91,3.91,0,0,0,2.22-.71l.79,1.42a6.28,6.28,0,0,1-3.36,1.06C84.23,103.2,82.11,101.34,82.11,98.15Zm6.56-.89c0-1.5-.62-2.39-2-2.39a2.43,2.43,0,0,0-2.31,2.39Z"></path><path class="cls-1" d="M91.77,101.87l1.06-1.5a4.19,4.19,0,0,0,2.66,1.06c1.07,0,1.51-.53,1.51-1.15,0-.8-1.06-1.15-2-1.6-1.24-.44-2.75-1.24-2.75-2.83s1.33-2.93,3.55-2.93A5.21,5.21,0,0,1,99,94.07l-1.06,1.42a3.19,3.19,0,0,0-2.13-.8c-1,0-1.42.45-1.42,1.07,0,.8,1,1.06,2,1.42,1.33.53,2.84,1.15,2.84,2.92s-1.33,3-3.82,3A5.68,5.68,0,0,1,91.77,101.87Z"></path><path class="cls-1" d="M100.37,101.87l1.06-1.5a4.19,4.19,0,0,0,2.66,1.06c1.07,0,1.51-.53,1.51-1.15,0-.8-1.07-1.15-2-1.6-1.24-.44-2.75-1.24-2.75-2.83s1.33-2.93,3.55-2.93a5.21,5.21,0,0,1,3.19,1.15l-1.07,1.42a3.16,3.16,0,0,0-2.12-.8c-1,0-1.42.45-1.42,1.07,0,.8,1,1.06,2,1.42,1.33.53,2.83,1.15,2.83,2.92s-1.33,3-3.81,3A5.51,5.51,0,0,1,100.37,101.87Z"></path><path class="cls-1" d="M109.59,90.26a1.39,1.39,0,0,1,1.24-1.51,1.38,1.38,0,1,1,.26,2.75H111a1.21,1.21,0,0,1-1.42-1.24Zm.26,3h2.31V103h-2.31Z"></path><path class="cls-1" d="M114.2,98.15c0-3.28,2.21-5.14,4.61-5.14s4.61,1.86,4.61,5.14-2.22,5-4.61,5A4.69,4.69,0,0,1,114.2,98.15Zm6.91,0c0-2-.88-3.28-2.3-3.28s-2.31,1.24-2.31,3.28.89,3.19,2.31,3.19S121.11,100.1,121.11,98.15Z"></path><path class="cls-1" d="M125.54,93.28h1.87l.17,1.32h.09a4.4,4.4,0,0,1,3.19-1.5c2,0,3,1.42,3,3.81v6h-2.31V97.18c0-1.6-.44-2.22-1.5-2.22a3.14,3.14,0,0,0-2.22,1.24V103h-2.31Z"></path><path class="cls-1" d="M140.79,90h7.8v2H143.1v3.63h4.7v2h-4.7v5.32h-2.31Z"></path><path class="cls-1" d="M149.75,98.15c0-3.28,2.21-5.14,4.61-5.14s4.6,1.86,4.6,5.14-2.21,5-4.6,5A4.69,4.69,0,0,1,149.75,98.15Zm6.91,0c0-2-.89-3.28-2.3-3.28s-2.31,1.24-2.31,3.28.89,3.19,2.31,3.19,2.3-1.24,2.3-3.19Z"></path><path class="cls-1" d="M161.09,93.28H163l.18,1.68h.09A3.26,3.26,0,0,1,166,93a3.72,3.72,0,0,1,1.06.18l-.35,2a4.56,4.56,0,0,0-1-.18c-.8,0-1.68.53-2.3,2v5.94h-2.31Z"></path><path class="cls-1" d="M168.54,99.39V93.28h2.3V99c0,1.59.45,2.21,1.51,2.21.89,0,1.42-.35,2.13-1.33V93.28h2.3V103h-1.95l-.17-1.42h-.09a4.23,4.23,0,0,1-3.11,1.68C169.43,103.2,168.54,101.79,168.54,99.39Z"></path><path class="cls-1" d="M179.44,93.28h1.86l.18,1.32h.09a4.26,4.26,0,0,1,3-1.59,2.58,2.58,0,0,1,2.66,1.77A4.35,4.35,0,0,1,190.35,93c2,0,3,1.42,3,3.81v6h-2.3V97.09c0-1.6-.45-2.22-1.51-2.22a2.78,2.78,0,0,0-2,1.24v6.83H185.2V97.18c0-1.6-.44-2.22-1.5-2.22a3,3,0,0,0-2,1.24V103h-2.31Z"></path><line class="cls-2" x1="208.34" y1="45.85" x2="208.34" y2="9.86"></line><path class="cls-3" d="M71.56,45.85c-6.12,0-6.56-4.61-6.56-6a6.12,6.12,0,0,1,4.34-6.12c4-1.5,4.88-1.68,7.62-2.57v-.71a5.88,5.88,0,0,0-.26-2.48c-.53-1.59-2-2.57-4.17-2.57a5.13,5.13,0,0,0-4.34,2.39l-.27.45-1.15-.71.09-.36c.53-1.77,2.75-4.78,7.62-4.78,3.19,0,5.23.88,6.47,2.83C81.93,26.7,82,28.83,82,31c0,2-.09,4.08-.09,5.85,0,1.16-.09,2.22-.09,2.84,0,1.6.27,2.84,1.6,2.84a1.69,1.69,0,0,0,.71-.18l.35-.27.71.89-.27.36c-1.24,1.5-2.39,2.48-4.43,2.48a3.21,3.21,0,0,1-3.46-2.31A7,7,0,0,1,71.56,45.85ZM77,34a25.68,25.68,0,0,0-5,1.86,3.66,3.66,0,0,0-2,3.55c0,1.24.44,3.28,3.37,3.28A6.37,6.37,0,0,0,77,41.59Z"></path><path class="cls-3" d="M34.15,45.76A21.22,21.22,0,0,1,26.7,44.7l-.35-.09V42.92a33.26,33.26,0,0,0-.09-3.72l-.09-1.15H27.5v.44a4.52,4.52,0,0,0,1,2.75c1,1.06,3.2,1.77,5.23,1.77,4.35,0,6.3-1.59,6.3-5.14,0-3-1.86-4.26-4.43-5.94l-.45-.27-2.66-1.77c-3.72-2.48-5.67-4.52-5.67-8.42,0-1.95.71-8.33,10.19-8.33a46,46,0,0,1,7,.53l.44.09v6.56H43.28v-.45a4.61,4.61,0,0,0-1.07-2.74c-.88-.89-2.92-1.33-5.05-1.33-5,0-5.58,2.57-5.58,4.52,0,2.66,1.33,3.54,4.34,5.49l3.46,2.31c2.92,1.95,5.67,3.81,5.67,8.6C45.05,44.87,37.43,45.76,34.15,45.76Z"></path><path class="cls-3" d="M56.58,45.94c-3.46,0-5.41-1.24-6.3-4a20.52,20.52,0,0,1-.35-4.61c0-3.64,0-6.47.09-9.84V25.81H47.09v-.88l.27-.09a8.84,8.84,0,0,0,2.48-1.42,16.92,16.92,0,0,0,3.72-4.61l.53-.89h1.07V23h7.71v2.83H55.16V37.69c0,3.55.71,5.59,4,5.59a5.94,5.94,0,0,0,2.74-.62l.45-.27.44.89-.27.26A7.46,7.46,0,0,1,56.58,45.94Z"></path><path class="cls-3" d="M87.34,45.67V44.61h.44a3.18,3.18,0,0,0,2-1c.71-.8.71-2.66.71-6.56V30.6c0-2.75,0-4-.44-4.61a2.83,2.83,0,0,0-2-.8h-.62V23.86h.88a32.58,32.58,0,0,0,4.17-.35,5.94,5.94,0,0,0,2.39-.8l.27-.09.44.27v1.77a11.45,11.45,0,0,1,6.56-2.22c4.08,0,6.74,1.87,7.45,5.32a20.29,20.29,0,0,1,.26,4.08V38.4c0,3.72.18,4.79.89,5.41a3.32,3.32,0,0,0,1.77.62h.45v1.06l-1.15-.09c-1.6-.08-3-.17-4.53-.17-1.68,0-3.45,0-5.14.17l-.53.09v-1l.44-.09a3.54,3.54,0,0,0,1.87-.8c.7-.71.79-2.48.79-4v-4.7c0-1.68,0-3.45-.17-5.14-.36-2.92-1.87-4.25-4.79-4.25a7.91,7.91,0,0,0-4.26,1V38.4c0,3.72.18,4.79.89,5.41a3.32,3.32,0,0,0,1.77.62h.45v1.06l-1.24-.09c-1.6-.08-2.93-.17-4.35-.17a51,51,0,0,0-5.14.17Z"></path><path class="cls-3" d="M115.53,45.67V44.61H116a2.89,2.89,0,0,0,2-.89c.71-.8.71-2.66.71-6.56V25.81h-2.93V24.57l.27-.09a9.55,9.55,0,0,0,2.66-1.41,46.9,46.9,0,0,1,.35-6c.89-4.7,3.9-7,9.05-7a9.35,9.35,0,0,1,5.49,1.69l.18.18.09.44-2.22,3.1h-.53l-.09-.26a3.88,3.88,0,0,0-3.81-2.66,3.65,3.65,0,0,0-2.31.79c-1,1-1.15,2.4-1.15,5.32V23h5v2.83h-5V38.4c0,3,.09,4.43.53,5.05.62,1,2.57,1.07,3.11,1.07h.44v1.24h-.53c-2.48-.18-4.35-.18-5.68-.18-1.68,0-3.54,0-5.58.18Z"></path><path class="cls-3" d="M141.5,46c-6.91,0-11-4.26-11-11.53,0-5.58,3-12.06,11.52-12.06,6.92,0,11,4.26,11,11.53C152.94,39.47,149.92,46,141.5,46Zm.27-21a4.21,4.21,0,0,0-3.19,1.06c-1.87,1.51-2.75,4.25-2.75,8.24,0,1.51.26,9.13,5.85,9.13a4.64,4.64,0,0,0,3.19-1.06c1.77-1.51,2.75-4.25,2.75-8.24,0-1.51-.36-9.13-5.85-9.13Z"></path><path class="cls-3" d="M155.15,45.67V44.52h.45a3,3,0,0,0,2-1c.7-.79.7-2.66.7-6.47V30.6c0-2.75,0-4-.44-4.61a2.81,2.81,0,0,0-2-.8h-.62V23.77h.89a21,21,0,0,0,4.08-.44,10.49,10.49,0,0,0,2.39-.62l.27-.09.35.18v1.95a7.69,7.69,0,0,1,5.23-2.13,5.37,5.37,0,0,1,3.81,1.24l.18.18v.71l-1.86,3.46h-.89l-.18-.18a4,4,0,0,0-3.63-1.77,4.69,4.69,0,0,0-2.48.71V38.31c0,3,.09,4.44.53,5,.62,1,2.57,1.06,3.1,1.06h.45v1.24h-.54c-2.48-.18-4.34-.18-5.67-.18-1.68,0-3.55,0-5.59.18Z"></path><path class="cls-3" d="M190.61,45.94l-.62-.18V43.9A11,11,0,0,1,183.7,46c-6.21,0-10.2-4.26-10.2-11a14.62,14.62,0,0,1,1.24-6.11c1.87-4.08,5.86-6.48,10.73-6.48a23.85,23.85,0,0,1,4.43.45V18.1c0-2.84,0-4.34-.44-5a2.71,2.71,0,0,0-2-.8h-.62l.09-1h.44a42.83,42.83,0,0,0,4.88-.62,8.92,8.92,0,0,0,2.21-.53l.18-.09.35.27v.18c-.17,1.86-.17,5.85-.17,8.86V37.78c0,2.75,0,4.43.44,5a2.74,2.74,0,0,0,1.95.79h.62v1.24h-.44a33.88,33.88,0,0,0-4.35.45,9.64,9.64,0,0,0-2.3.53Zm-5.23-20.75c-4.43,0-6.56,3-6.56,9.22,0,2.48.71,8.34,7.27,8.34h.18a7,7,0,0,0,3.54-.89V26.7a6,6,0,0,0-4.43-1.51Z"></path><path class="cls-1" d="M221,25.55h12.06v2.92h-8.52v5.14h7.19v3h-7.19v5.94h8.78v3H221Z"></path><path class="cls-1" d="M237,25.55h3.63l6.21,11.26,2,4.25h.09c-.17-2-.44-4.61-.44-6.82V25.55h3.37V45.49h-3.64L242,34.24,240,30h-.09c.18,2.13.44,4.52.44,6.74v8.77H237Z"></path><path class="cls-1" d="M255.68,35.56c0-6.56,4.17-10.46,9.49-10.46a8.14,8.14,0,0,1,6,2.58L269.33,30a5.38,5.38,0,0,0-4-1.77c-3.54,0-5.94,2.75-5.94,7.27s2.13,7.27,6.12,7.27a4.1,4.1,0,0,0,2.84-.89V37.6h-3.81V34.68h7v8.77a9.09,9.09,0,0,1-6.38,2.4C259.76,45.85,255.68,42.21,255.68,35.56Z"></path><path class="cls-1" d="M275.8,25.55h3.55V45.49H275.8Z"></path><path class="cls-1" d="M284.05,25.55h3.63l6.21,11.26,2,4.25H296c-.18-2-.45-4.61-.45-6.82V25.55h3.37V45.49H295.4l-6.21-11.25-2-4.26h-.09c.18,2.13.45,4.52.45,6.74v8.77h-3.37Z"></path><path class="cls-1" d="M303.82,25.55h12.05v2.92h-8.51v5.14h7.18v3h-7.18v5.94h8.78v3H303.82Z"></path><path class="cls-1" d="M319.77,25.55h12.06v2.92h-8.51v5.14h7.18v3h-7.18v5.94h8.78v3H319.77Z"></path><path class="cls-1" d="M335.73,25.55h6.74c4.16,0,7.36,1.5,7.36,5.94a5.73,5.73,0,0,1-4,5.76l4.78,8.33h-4l-4.25-7.8h-3.1v7.8h-3.55Zm6.38,9.31c2.75,0,4.26-1.16,4.26-3.46s-1.51-3.1-4.26-3.1h-2.83v6.47Z"></path><path class="cls-1" d="M353.64,25.55h3.54V45.49h-3.54Z"></path><path class="cls-1" d="M361.88,25.55h3.64l6.2,11.26,2,4.25h.09c-.18-2-.44-4.61-.44-6.82V25.55h3.36V45.49h-3.63l-6.21-11.25-2-4.26h-.09c.17,2.13.44,4.52.44,6.74v8.77h-3.37Z"></path><path class="cls-1" d="M380.59,35.56c0-6.56,4.16-10.46,9.48-10.46a8.17,8.17,0,0,1,6,2.58L394.24,30a5.39,5.39,0,0,0-4-1.77c-3.55,0-5.94,2.75-5.94,7.27s2.13,7.27,6.12,7.27a4.06,4.06,0,0,0,2.83-.89V37.6h-3.81V34.68h7v8.77a9.07,9.07,0,0,1-6.38,2.4C384.58,45.85,380.59,42.21,380.59,35.56Z"></path></g></g><line class="cls-4" x1="1.5" x2="1.5" y2="113.47"></line></g></g></svg> 