<svg xmlns="http://www.w3.org/2000/svg" viewBox="0 0 418.42 109.36"><defs><style>.cls-1{stroke:#000;stroke-miterlimit:10;stroke-width:0.6px;}.cls-2{fill:#a5001d;}</style></defs><title>Asset 2</title><g id="Layer_2" data-name="Layer 2"><g id="Layer_2-2" data-name="Layer 2"><path d="M1.09,71c0-4.78,3-7.61,6.67-7.61A5.8,5.8,0,0,1,12,65.24L10.6,66.91a3.8,3.8,0,0,0-2.77-1.27c-2.39,0-4.08,2-4.08,5.29s1.56,5.34,4,5.34a4.16,4.16,0,0,0,3.13-1.5l1.38,1.63a5.89,5.89,0,0,1-4.6,2.12C4,78.52,1.09,75.84,1.09,71Z" transform="translate(-1.09)"/><path d="M13.54,72.78c0-3.57,2.48-5.76,5-5.76,3,0,4.53,2.14,4.53,5.2A6,6,0,0,1,23,73.47H16a3.14,3.14,0,0,0,3.24,3.06,4.58,4.58,0,0,0,2.54-.8l.87,1.61a6.92,6.92,0,0,1-3.75,1.18C15.9,78.52,13.54,76.4,13.54,72.78Zm7.34-1c0-1.7-.74-2.72-2.23-2.72A2.75,2.75,0,0,0,16,71.73Z" transform="translate(-1.09)"/><path d="M25.52,67.29h2.12l.18,1.47h.09A5.09,5.09,0,0,1,31.51,67c2.34,0,3.37,1.59,3.37,4.35v6.88H32.31V71.71c0-1.81-.51-2.48-1.72-2.48a3.47,3.47,0,0,0-2.5,1.36v7.66H25.52Z" transform="translate(-1.09)"/><path d="M38.17,74.55V69.32H36.61V67.4l1.7-.11.31-3h2.14v3h2.79v2H40.76v5.22c0,1.29.49,1.92,1.54,1.92a3.14,3.14,0,0,0,1.14-.25l.45,1.9a7,7,0,0,1-2.23.4C39.11,78.52,38.17,76.91,38.17,74.55Z" transform="translate(-1.09)"/><path d="M44.78,72.78c0-3.57,2.48-5.76,5-5.76,3,0,4.53,2.14,4.53,5.2a6,6,0,0,1-.11,1.25h-7a3.14,3.14,0,0,0,3.24,3.06,4.58,4.58,0,0,0,2.54-.8l.87,1.61a6.92,6.92,0,0,1-3.75,1.18C47.15,78.52,44.78,76.4,44.78,72.78Zm7.34-1c0-1.7-.74-2.72-2.23-2.72a2.75,2.75,0,0,0-2.63,2.72Z" transform="translate(-1.09)"/><path d="M56.77,67.29h2.12l.18,1.94h.09A3.72,3.72,0,0,1,62.26,67a2.79,2.79,0,0,1,1.25.22l-.45,2.23a3.58,3.58,0,0,0-1.14-.18c-.87,0-1.92.6-2.59,2.25v6.7H56.77Z" transform="translate(-1.09)"/><path d="M70,69.32H68.53V67.4L70,67.29V66.15c0-2.28,1-3.93,3.64-3.93a5.55,5.55,0,0,1,2,.38l-.49,1.92A3,3,0,0,0,74,64.25c-.89,0-1.38.58-1.38,1.85v1.18h2.14v2H72.57v8.93H70Z" transform="translate(-1.09)"/><path d="M75.76,72.78c0-3.66,2.48-5.76,5.2-5.76s5.22,2.1,5.22,5.76S83.7,78.52,81,78.52,75.76,76.42,75.76,72.78Zm7.79,0c0-2.21-1-3.66-2.59-3.66s-2.57,1.45-2.57,3.66,1,3.64,2.57,3.64S83.55,75,83.55,72.78Z" transform="translate(-1.09)"/><path d="M88.6,67.29h2.12l.18,1.94H91A3.72,3.72,0,0,1,94.09,67a2.79,2.79,0,0,1,1.25.22l-.45,2.23a3.58,3.58,0,0,0-1.14-.18c-.87,0-1.92.6-2.59,2.25v6.7H88.6Z" transform="translate(-1.09)"/><path d="M101.61,63.65h4.67c3,0,5.22.92,5.22,3.59a3.29,3.29,0,0,1-2,3.17v.09A3.33,3.33,0,0,1,112.26,74c0,2.92-2.39,4.29-5.6,4.29h-5Zm4.44,6c2,0,2.9-.8,2.9-2.05,0-1.43-1-2-2.86-2h-1.9v4Zm.33,6.56c2.14,0,3.35-.78,3.35-2.41s-1.16-2.21-3.35-2.21H104.2v4.62Z" transform="translate(-1.09)"/><path d="M114.72,75.44V62.49h2.57V75.57c0,.63.29.85.56.85a1.54,1.54,0,0,0,.4,0l.33,1.92a3.5,3.5,0,0,1-1.36.22C115.39,78.52,114.72,77.34,114.72,75.44Z" transform="translate(-1.09)"/><path d="M119.86,72.78c0-3.66,2.48-5.76,5.2-5.76s5.22,2.1,5.22,5.76-2.48,5.74-5.22,5.74S119.86,76.42,119.86,72.78Zm7.79,0c0-2.21-1-3.66-2.59-3.66s-2.57,1.45-2.57,3.66,1,3.64,2.57,3.64S127.65,75,127.65,72.78Z" transform="translate(-1.09)"/><path d="M132,72.78A5.41,5.41,0,0,1,137.53,67a4.72,4.72,0,0,1,3.21,1.23l-1.25,1.67a2.68,2.68,0,0,0-1.83-.8c-1.76,0-3,1.45-3,3.66s1.21,3.64,2.92,3.64a3.66,3.66,0,0,0,2.25-.94l1,1.7a5.48,5.48,0,0,1-3.57,1.34C134.34,78.52,132,76.42,132,72.78Z" transform="translate(-1.09)"/><path d="M142.83,62.49h2.52v9.84h.07l4.06-5h2.81l-3.75,4.46,4.13,6.5h-2.79l-2.81-4.75-1.72,2v2.79h-2.52Z" transform="translate(-1.09)"/><path d="M153.28,72.78A5.41,5.41,0,0,1,158.77,67,4.72,4.72,0,0,1,162,68.25l-1.25,1.67a2.68,2.68,0,0,0-1.83-.8c-1.76,0-3,1.45-3,3.66s1.21,3.64,2.92,3.64a3.66,3.66,0,0,0,2.25-.94l1,1.7a5.48,5.48,0,0,1-3.57,1.34C155.58,78.52,153.28,76.42,153.28,72.78Z" transform="translate(-1.09)"/><path d="M164.06,62.49h2.57v4.06l-.09,2.12A5,5,0,0,1,170,67c2.34,0,3.37,1.59,3.37,4.35v6.88h-2.57V71.71c0-1.81-.51-2.48-1.72-2.48a3.47,3.47,0,0,0-2.5,1.36v7.66h-2.57Z" transform="translate(-1.09)"/><path d="M175.75,75.31c0-2.34,1.94-3.57,6.45-4.06,0-1.16-.51-2.14-2-2.14a6.24,6.24,0,0,0-3.08,1.07l-.94-1.72A8.58,8.58,0,0,1,180.68,67c2.72,0,4.08,1.67,4.08,4.73v6.5h-2.12L182.47,77h-.09A5.33,5.33,0,0,1,179,78.52,3.06,3.06,0,0,1,175.75,75.31Zm6.45,0V72.85c-3,.38-4,1.16-4,2.25s.67,1.41,1.58,1.41A3.48,3.48,0,0,0,182.2,75.31Z" transform="translate(-1.09)"/><path d="M187.37,63.92A1.59,1.59,0,1,1,189,65.37,1.47,1.47,0,0,1,187.37,63.92Zm.29,3.37h2.57v11h-2.57Z" transform="translate(-1.09)"/><path d="M193.3,67.29h2.12l.18,1.47h.09A5.09,5.09,0,0,1,199.28,67c2.34,0,3.37,1.59,3.37,4.35v6.88h-2.57V71.71c0-1.81-.51-2.48-1.72-2.48a3.47,3.47,0,0,0-2.5,1.36v7.66H193.3Z" transform="translate(-1.09)"/><path d="M210.49,63.65h4.93c3,0,5.36,1.07,5.36,4.33a4.09,4.09,0,0,1-2.9,4.17l3.48,6.09h-2.9l-3.15-5.71h-2.23v5.71h-2.59Zm4.67,6.83c2,0,3.08-.85,3.08-2.5s-1.09-2.25-3.08-2.25h-2.08v4.75Z" transform="translate(-1.09)"/><path d="M222.56,72.78c0-3.57,2.48-5.76,5-5.76,3,0,4.53,2.14,4.53,5.2a6,6,0,0,1-.11,1.25h-7a3.14,3.14,0,0,0,3.24,3.06,4.58,4.58,0,0,0,2.54-.8l.87,1.61A6.92,6.92,0,0,1,228,78.52C224.92,78.52,222.56,76.4,222.56,72.78Zm7.34-1c0-1.7-.74-2.72-2.23-2.72A2.75,2.75,0,0,0,225,71.73Z" transform="translate(-1.09)"/><path d="M233.44,77l1.21-1.65a4.88,4.88,0,0,0,3,1.23c1.18,0,1.74-.56,1.74-1.32,0-.92-1.18-1.32-2.34-1.76C235.63,73,234,72.14,234,70.3S235.54,67,238,67a5.92,5.92,0,0,1,3.64,1.32l-1.18,1.56A4.08,4.08,0,0,0,238,69c-1.09,0-1.61.51-1.61,1.21,0,.87,1.09,1.21,2.28,1.63,1.5.56,3.15,1.27,3.15,3.33,0,1.88-1.5,3.39-4.26,3.39A6.94,6.94,0,0,1,233.44,77Z" transform="translate(-1.09)"/><path d="M243.42,72.78c0-3.57,2.48-5.76,5-5.76,3,0,4.53,2.14,4.53,5.2a6,6,0,0,1-.11,1.25h-7a3.14,3.14,0,0,0,3.24,3.06,4.58,4.58,0,0,0,2.54-.8l.87,1.61a6.92,6.92,0,0,1-3.75,1.18C245.79,78.52,243.42,76.4,243.42,72.78Zm7.34-1c0-1.7-.74-2.72-2.23-2.72a2.75,2.75,0,0,0-2.63,2.72Z" transform="translate(-1.09)"/><path d="M254.67,75.31c0-2.34,1.94-3.57,6.45-4.06,0-1.16-.51-2.14-2-2.14A6.24,6.24,0,0,0,256,70.17l-.94-1.72A8.58,8.58,0,0,1,259.6,67c2.72,0,4.08,1.67,4.08,4.73v6.5h-2.12L261.39,77h-.09a5.33,5.33,0,0,1-3.39,1.47A3.06,3.06,0,0,1,254.67,75.31Zm6.45,0V72.85c-3,.38-4,1.16-4,2.25s.67,1.41,1.58,1.41A3.48,3.48,0,0,0,261.12,75.31Z" transform="translate(-1.09)"/><path d="M266.63,67.29h2.12l.18,1.94H269a3.72,3.72,0,0,1,3.1-2.21,2.79,2.79,0,0,1,1.25.22l-.45,2.23a3.58,3.58,0,0,0-1.14-.18c-.87,0-1.92.6-2.59,2.25v6.7h-2.57Z" transform="translate(-1.09)"/><path d="M274.08,72.78A5.41,5.41,0,0,1,279.57,67a4.72,4.72,0,0,1,3.21,1.23l-1.25,1.67a2.68,2.68,0,0,0-1.83-.8c-1.76,0-3,1.45-3,3.66s1.21,3.64,2.92,3.64a3.66,3.66,0,0,0,2.25-.94l1,1.7a5.48,5.48,0,0,1-3.57,1.34C276.38,78.52,274.08,76.42,274.08,72.78Z" transform="translate(-1.09)"/><path d="M284.87,62.49h2.57v4.06l-.09,2.12a5,5,0,0,1,3.5-1.65c2.34,0,3.37,1.59,3.37,4.35v6.88h-2.57V71.71c0-1.81-.51-2.48-1.72-2.48a3.47,3.47,0,0,0-2.5,1.36v7.66h-2.57Z" transform="translate(-1.09)"/><path d="M1.09,97.78c0-4.78,3-7.61,6.67-7.61A5.8,5.8,0,0,1,12,92L10.6,93.69a3.8,3.8,0,0,0-2.77-1.27c-2.39,0-4.08,2-4.08,5.29s1.56,5.34,4,5.34a4.16,4.16,0,0,0,3.13-1.5l1.38,1.63a5.89,5.89,0,0,1-4.6,2.12C4,105.3,1.09,102.62,1.09,97.78Z" transform="translate(-1.09)"/><path d="M13.53,99.56c0-3.66,2.48-5.76,5.2-5.76S24,95.9,24,99.56s-2.48,5.74-5.22,5.74S13.53,103.2,13.53,99.56Zm7.79,0c0-2.21-1-3.66-2.59-3.66s-2.57,1.45-2.57,3.66,1,3.64,2.57,3.64S21.32,101.75,21.32,99.56Z" transform="translate(-1.09)"/><path d="M26.37,94.07h2.12l.18,1.5h.09a4.64,4.64,0,0,1,3.35-1.76,3,3,0,0,1,3,2,5,5,0,0,1,3.53-2c2.32,0,3.39,1.59,3.39,4.35V105H39.47V98.49c0-1.81-.54-2.48-1.67-2.48a3.41,3.41,0,0,0-2.3,1.36V105H32.93V98.49c0-1.81-.54-2.48-1.7-2.48a3.45,3.45,0,0,0-2.3,1.36V105H26.37Z" transform="translate(-1.09)"/><path d="M45.06,94.07h2.12l.18,1.16h.09a5.35,5.35,0,0,1,3.3-1.43c2.72,0,4.31,2.19,4.31,5.58,0,3.75-2.25,5.92-4.69,5.92a4.44,4.44,0,0,1-2.81-1.21l.07,1.83v3.44H45.06Zm7.34,5.34c0-2.19-.71-3.48-2.37-3.48a3.5,3.5,0,0,0-2.41,1.23v5.11a3.47,3.47,0,0,0,2.21.92C51.29,103.18,52.41,101.89,52.41,99.41Z" transform="translate(-1.09)"/><path d="M57.57,94.07h2.12L59.87,96H60a3.72,3.72,0,0,1,3.1-2.21,2.79,2.79,0,0,1,1.25.22l-.45,2.23a3.58,3.58,0,0,0-1.14-.18c-.87,0-1.92.6-2.59,2.25V105H57.57Z" transform="translate(-1.09)"/><path d="M65,99.56c0-3.57,2.48-5.76,5-5.76,3,0,4.53,2.14,4.53,5.2a6,6,0,0,1-.11,1.25h-7a3.14,3.14,0,0,0,3.24,3.06,4.58,4.58,0,0,0,2.54-.8l.87,1.61a6.92,6.92,0,0,1-3.75,1.18C67.4,105.3,65,103.18,65,99.56Zm7.34-1c0-1.7-.74-2.72-2.23-2.72a2.75,2.75,0,0,0-2.63,2.72Z" transform="translate(-1.09)"/><path d="M75.92,103.78l1.21-1.65a4.88,4.88,0,0,0,3,1.23c1.18,0,1.74-.56,1.74-1.32,0-.92-1.18-1.32-2.34-1.76-1.45-.54-3.08-1.36-3.08-3.19s1.54-3.28,4-3.28a5.92,5.92,0,0,1,3.64,1.32l-1.18,1.56a4.08,4.08,0,0,0-2.41-.94c-1.09,0-1.61.51-1.61,1.21,0,.87,1.09,1.21,2.28,1.63,1.5.56,3.15,1.27,3.15,3.33,0,1.88-1.5,3.39-4.26,3.39A6.94,6.94,0,0,1,75.92,103.78Z" transform="translate(-1.09)"/><path d="M85.61,103.78l1.21-1.65a4.88,4.88,0,0,0,3,1.23c1.18,0,1.74-.56,1.74-1.32,0-.92-1.18-1.32-2.34-1.76-1.45-.54-3.08-1.36-3.08-3.19s1.54-3.28,4-3.28a5.92,5.92,0,0,1,3.64,1.32l-1.18,1.56a4.08,4.08,0,0,0-2.41-.94c-1.09,0-1.61.51-1.61,1.21,0,.87,1.09,1.21,2.28,1.63,1.5.56,3.15,1.27,3.15,3.33,0,1.88-1.5,3.39-4.26,3.39A6.94,6.94,0,0,1,85.61,103.78Z" transform="translate(-1.09)"/><path d="M96,90.7a1.59,1.59,0,1,1,1.58,1.45A1.47,1.47,0,0,1,96,90.7Zm.29,3.37h2.57v11H96.25Z" transform="translate(-1.09)"/><path d="M101.17,99.56c0-3.66,2.48-5.76,5.2-5.76s5.22,2.1,5.22,5.76-2.48,5.74-5.22,5.74S101.17,103.2,101.17,99.56Zm7.79,0c0-2.21-1-3.66-2.59-3.66s-2.57,1.45-2.57,3.66,1,3.64,2.57,3.64S109,101.75,109,99.56Z" transform="translate(-1.09)"/><path d="M114,94.07h2.12l.18,1.47h.09A5.09,5.09,0,0,1,120,93.8c2.34,0,3.37,1.59,3.37,4.35V105H120.8V98.49c0-1.81-.51-2.48-1.72-2.48a3.47,3.47,0,0,0-2.5,1.36V105H114Z" transform="translate(-1.09)"/><path d="M131.2,90.43H140v2.19h-6.23v4.13h5.31v2.19h-5.31V105H131.2Z" transform="translate(-1.09)"/><path d="M141.29,99.56c0-3.66,2.48-5.76,5.2-5.76s5.22,2.1,5.22,5.76-2.48,5.74-5.22,5.74S141.29,103.2,141.29,99.56Zm7.79,0c0-2.21-1-3.66-2.59-3.66s-2.57,1.45-2.57,3.66,1,3.64,2.57,3.64S149.08,101.75,149.08,99.56Z" transform="translate(-1.09)"/><path d="M154.13,94.07h2.12l.18,1.94h.09a3.72,3.72,0,0,1,3.1-2.21,2.79,2.79,0,0,1,1.25.22l-.45,2.23a3.58,3.58,0,0,0-1.14-.18c-.87,0-1.92.6-2.59,2.25V105h-2.57Z" transform="translate(-1.09)"/><path d="M162.45,100.95V94.07H165v6.54c0,1.81.51,2.48,1.7,2.48,1,0,1.61-.45,2.43-1.52v-7.5h2.57v11h-2.1l-.2-1.61h-.07a4.47,4.47,0,0,1-3.53,1.88C163.47,105.3,162.45,103.72,162.45,100.95Z" transform="translate(-1.09)"/><path d="M174.77,94.07h2.12l.18,1.5h.09a4.64,4.64,0,0,1,3.35-1.76,3,3,0,0,1,3,2,5,5,0,0,1,3.53-2c2.32,0,3.39,1.59,3.39,4.35V105h-2.59V98.49c0-1.81-.54-2.48-1.67-2.48a3.41,3.41,0,0,0-2.3,1.36V105h-2.57V98.49c0-1.81-.54-2.48-1.7-2.48a3.45,3.45,0,0,0-2.3,1.36V105h-2.57Z" transform="translate(-1.09)"/><line class="cls-1" x1="206.31" y1="40.58" x2="206.31"/><path class="cls-2" d="M53.1,40.58c-6.91,0-7.44-5.24-7.44-6.85a6.82,6.82,0,0,1,4.91-6.85C55.11,25.21,56.08,25,59.21,24v-.81a7.36,7.36,0,0,0-.3-2.82c-.6-1.8-2.33-2.93-4.67-2.93a5.56,5.56,0,0,0-4.87,2.66l-.27.52-1.28-.76.13-.39c.62-2,3.13-5.35,8.59-5.35,3.55,0,5.87,1,7.3,3.19C64.9,19,65,21.44,65,23.93c0,2.19-.05,4.64-.1,6.61,0,1.35-.06,2.53-.06,3.24,0,1.8.29,3.2,1.79,3.2a1.2,1.2,0,0,0,.83-.25l.41-.35.84,1-.28.36c-1.38,1.66-2.69,2.84-5,2.84a3.71,3.71,0,0,1-3.9-2.58A8.6,8.6,0,0,1,53.1,40.58Zm6.11-13.4a29.37,29.37,0,0,0-5.6,2.12,4.27,4.27,0,0,0-2.22,4c0,1.38.49,3.69,3.8,3.69a6.88,6.88,0,0,0,4-1.18Z" transform="translate(-1.09)"/><path class="cls-2" d="M10.91,40.52a25.77,25.77,0,0,1-8.41-1.2l-.37-.12V37.34c0-2.46-.05-3.43-.11-4.22l-.07-1.28h1.5l0,.54a5.09,5.09,0,0,0,1.15,3.07c1.08,1.23,3.58,2,5.9,2,4.86,0,7.12-1.84,7.12-5.79,0-3.38-2.09-4.79-5-6.74l-.46-.32-3-2C4.92,19.74,2.77,17.49,2.77,13c0-2.2.83-9.37,11.51-9.37a51.77,51.77,0,0,1,7.9.6l.46.08,0,.45s0,1.41,0,2.92c0,1.19,0,2.22,0,3.29l0,.8H21.36l0-.5a4.56,4.56,0,0,0-1.24-3.08c-1-1-3.3-1.51-5.71-1.51-5.66,0-6.32,2.91-6.32,5.09,0,3,1.54,4,4.9,6.24l3.86,2.56c3.29,2.19,6.39,4.26,6.39,9.72C23.22,39.52,14.61,40.52,10.91,40.52Z" transform="translate(-1.09)"/><path class="cls-2" d="M36.21,40.68c-3.94,0-6.12-1.41-7.09-4.55a21.72,21.72,0,0,1-.4-5.19c0-4.07,0-7.34.08-11.12l0-1.78H25.45V17l.33-.13a10.49,10.49,0,0,0,2.86-1.62,18.35,18.35,0,0,0,4.18-5.16l.57-1h1.11v5.73h8.68V18H34.49V31.41c0,4,.75,6.28,4.53,6.28A7.47,7.47,0,0,0,42.14,37l.52-.27.45,1-.22.25C42.8,38.11,40.84,40.68,36.21,40.68Z" transform="translate(-1.09)"/><path class="cls-2" d="M70.87,40.36V39.15l.49,0a3.45,3.45,0,0,0,2.26-1.06c.79-.88.83-3.05.83-7.39V23.38c0-3.13,0-4.47-.5-5.16a3,3,0,0,0-2.29-.87l-.21,0L71,17.28V15.83l.58,0h.39a27,27,0,0,0,4.6-.49,8.41,8.41,0,0,0,2.69-.9l.29-.13.5.3v2a12.5,12.5,0,0,1,7.38-2.45c4.59,0,7.59,2.15,8.45,6a26.51,26.51,0,0,1,.33,4.56v7.43c0,4.21.16,5.39,1,6.12a3.6,3.6,0,0,0,2,.71l.5,0v1.19l-1.26-.07c-1.83-.09-3.41-.18-5.06-.18a56.51,56.51,0,0,0-5.78.21l-.59.06V39.18l.46-.06a3.73,3.73,0,0,0,2.11-.87c.83-.83.87-2.78.93-4.48,0-.28,0-.58,0-.88,0-1,0-3,0-4.42a54.67,54.67,0,0,0-.21-5.83c-.38-3.29-2.1-4.83-5.41-4.83a9.84,9.84,0,0,0-4.77,1.07V32.27c0,4.21.17,5.39,1,6.12a3.6,3.6,0,0,0,2,.71l.5,0v1.19l-1.36-.07c-1.76-.09-3.29-.17-4.9-.17a58.24,58.24,0,0,0-5.85.21Z" transform="translate(-1.09)"/><path class="cls-2" d="M102.64,40.36V39.12l.5,0a3.41,3.41,0,0,0,2.26-1c.79-.88.83-3,.83-7.37V18h-3.32V16.61l.33-.14a12.65,12.65,0,0,0,3-1.58,44.87,44.87,0,0,1,.38-6.76c1-5.26,4.44-7.93,10.22-7.93a10.34,10.34,0,0,1,6.22,1.94l.2.16.08.54L120.8,6.36h-.61l-.14-.32c-1-2.16-2.37-3-4.29-3a3.76,3.76,0,0,0-2.57.92c-1.1,1.1-1.29,2.74-1.29,6v4.92h5.67V18h-5.67V32.16c0,3.36.11,5,.55,5.66.71,1.07,2.88,1.15,3.52,1.15h.54v1.36l-.57,0c-2.8-.15-4.89-.21-6.4-.21-1.89,0-4,0-6.32.21Z" transform="translate(-1.09)"/><path class="cls-2" d="M131.94,40.79c-7.77,0-12.42-4.84-12.42-13,0-6.3,3.39-13.65,13-13.65,7.78,0,12.42,4.84,12.42,13C144.9,33.43,141.51,40.79,131.94,40.79Zm.32-23.66a5.35,5.35,0,0,0-3.61,1.16c-2,1.71-3.08,4.84-3.08,9.28,0,1.72.32,10.28,6.59,10.28a5.42,5.42,0,0,0,3.61-1.16c2-1.71,3.08-4.84,3.08-9.28C138.85,25.69,138.53,17.12,132.26,17.12Z" transform="translate(-1.09)"/><path class="cls-2" d="M147.36,40.36V39.07l.5,0A3.35,3.35,0,0,0,150.12,38c.79-.88.82-3,.82-7.31V23.38c0-3.13,0-4.47-.49-5.16a3,3,0,0,0-2.29-.87l-.2,0-.49-.05V15.74h1a26.49,26.49,0,0,0,4.6-.48,12.44,12.44,0,0,0,2.73-.73l.3-.13.45.24v2.21a8.43,8.43,0,0,1,5.89-2.37,6.17,6.17,0,0,1,4.27,1.42l.17.16v.8l-2.14,3.93h-1l-.16-.25a4.55,4.55,0,0,0-4.1-2,4.84,4.84,0,0,0-2.78.81V32.16c0,3.36.11,5,.55,5.61.72,1.07,2.88,1.15,3.52,1.15h.53v1.41l-.56,0c-2.8-.15-4.9-.21-6.4-.21-1.89,0-4,0-6.32.21Z" transform="translate(-1.09)"/><path class="cls-2" d="M187.41,40.71l-.68-.23V38.34a12.09,12.09,0,0,1-7.12,2.39c-7,0-11.52-4.85-11.52-12.36a16.76,16.76,0,0,1,1.39-6.86c2.13-4.62,6.57-7.27,12.15-7.27a25.05,25.05,0,0,1,5,.49V9.31c0-3.18,0-4.87-.5-5.55a2.94,2.94,0,0,0-2.24-.87l-.21,0-.48,0,.11-1.14h.54A52.82,52.82,0,0,0,189.3,1a16.32,16.32,0,0,0,2.52-.58l.25-.1.44.26,0,.25c-.17,2.1-.2,6.59-.2,10V31.52c0,3.1,0,5,.49,5.64a3,3,0,0,0,2.24.93l.21,0,.48,0V39.5h-.53a38.76,38.76,0,0,0-4.95.53,12.65,12.65,0,0,0-2.6.59Zm-5.88-23.43c-5,0-7.39,3.4-7.39,10.38,0,2.83.8,9.42,8.2,9.42h.24a7.86,7.86,0,0,0,4-1V19A7.08,7.08,0,0,0,181.53,17.28Z" transform="translate(-1.09)"/><path d="M221.7,17.66h13.59V21H225.7V26.8h8.1v3.38h-8.1v6.66h9.93v3.38H221.7Z" transform="translate(-1.09)"/><path d="M239.72,17.66h4.1l7,12.69,2.31,4.79h.14c-.17-2.31-.52-5.17-.52-7.69V17.66h3.83V40.21h-4.1l-7-12.69-2.31-4.79H243c.17,2.38.52,5.1.52,7.62v9.86h-3.83Z" transform="translate(-1.09)"/><path d="M260.83,29c0-7.38,4.66-11.76,10.66-11.76a9.28,9.28,0,0,1,6.83,2.86l-2.14,2.59a6.11,6.11,0,0,0-4.55-2c-4,0-6.69,3.1-6.69,8.17s2.38,8.24,6.9,8.24a5,5,0,0,0,3.24-1V31.28H270.8V28h7.86v9.93a10.34,10.34,0,0,1-7.21,2.69C265.35,40.63,260.83,36.49,260.83,29Z" transform="translate(-1.09)"/><path d="M283.51,17.66h4V40.21h-4Z" transform="translate(-1.09)"/><path d="M292.8,17.66h4.1l7,12.69,2.31,4.79h.14c-.17-2.31-.52-5.17-.52-7.69V17.66h3.83V40.21h-4.1l-7-12.69-2.31-4.79h-.14c.17,2.38.52,5.1.52,7.62v9.86H292.8Z" transform="translate(-1.09)"/><path d="M315.06,17.66h13.59V21h-9.59V26.8h8.1v3.38h-8.1v6.66H329v3.38H315.06Z" transform="translate(-1.09)"/><path d="M333.08,17.66h13.59V21h-9.59V26.8h8.1v3.38h-8.1v6.66H347v3.38H333.08Z" transform="translate(-1.09)"/><path d="M351.1,17.66h7.62c4.69,0,8.28,1.66,8.28,6.69a6.31,6.31,0,0,1-4.48,6.45l5.38,9.41h-4.48l-4.86-8.83H355.1v8.83h-4Zm7.21,10.55c3.07,0,4.76-1.31,4.76-3.86s-1.69-3.48-4.76-3.48H355.1v7.35Z" transform="translate(-1.09)"/><path d="M371.28,17.66h4V40.21h-4Z" transform="translate(-1.09)"/><path d="M380.57,17.66h4.1l7,12.69L394,35.14h.14c-.17-2.31-.52-5.17-.52-7.69V17.66h3.83V40.21h-4.1l-7-12.69L384,22.73h-.14c.17,2.38.52,5.1.52,7.62v9.86h-3.83Z" transform="translate(-1.09)"/><path d="M401.69,29c0-7.38,4.66-11.76,10.66-11.76a9.28,9.28,0,0,1,6.83,2.86L417,22.69a6.11,6.11,0,0,0-4.55-2c-4,0-6.69,3.1-6.69,8.17s2.38,8.24,6.9,8.24a5,5,0,0,0,3.24-1V31.28h-4.28V28h7.86v9.93a10.34,10.34,0,0,1-7.21,2.69C406.2,40.63,401.69,36.49,401.69,29Z" transform="translate(-1.09)"/></g></g></svg>