<?xml version="1.0" encoding="UTF-8"?> <svg xmlns="http://www.w3.org/2000/svg" viewBox="0 0 227.65 91.51"><defs><style>.cls-1{fill:#fff;}.cls-2{fill:#900;}</style></defs><g id="Layer_2" data-name="Layer 2"><g id="Layer_1-2" data-name="Layer 1"><g id="Layer_2-2" data-name="Layer 2"><g id="Layer_1-2-2" data-name="Layer 1-2"><path class="cls-1" d="M108.77,36.9a2.55,2.55,0,0,0-1.24-.62c-.27,0-.53.35-.89.89s-.62.62-1,.62-.62-.27-.53-.89c.17-1.33.71-8.16.88-9.75.09-.36.18-.36.36-.36l.8.09c.17,0,.35.09.35.45a10.32,10.32,0,0,0,2,6.2,9.15,9.15,0,0,0,7.54,4c3.19,0,7.27-2,7.27-6.83,0-5.49-4-7.53-8.25-9-1.68-.62-5.5-1.95-7.89-4.34-1.77-1.77-2.66-4.35-2.66-7.89,0-2.66,1.69-5.32,3.37-6.92A10.65,10.65,0,0,1,116.4,0a16,16,0,0,1,6.38,1.33c.53.27.8.18,1-.09l.71-.62a2,2,0,0,1,.71-.35c.27,0,.45.44.45.88,0,1.87.7,7.36.79,8.51a.42.42,0,0,1-.26.45l-.62.18c-.09.08-.27,0-.27-.09v-.09a12,12,0,0,0-3.37-5.94A7.27,7.27,0,0,0,116,1.88a6.06,6.06,0,0,0-6.47,6.3,6.7,6.7,0,0,0,1.68,4.7,16.49,16.49,0,0,0,6.12,3.19c3.72,1.15,6.74,2.13,8.69,4.43a10.3,10.3,0,0,1,2.39,7.27c0,6.38-3.9,11.79-11,11.79A13.16,13.16,0,0,1,108.77,36.9Z"></path><path class="cls-1" d="M132.44,9.6c0-3.28-.62-3.9-2.57-4.52L129,4.72c-.35-.09-.35-.18-.35-.35V3.92c0-.17.18-.26.62-.53L134.83.47A3,3,0,0,1,136.08,0c.35,0,.53.45.44,1.33s-.18,11.88-.18,14.54v3.46h.27A10.17,10.17,0,0,1,144,15.89,7,7,0,0,1,149.28,18c2.4,2.21,2.31,5,2.31,7.89V29c0,3,.09,6.38.09,7.36,0,.62.88.8,1.95.8h.88c.45,0,.63.08.63.44v.8c0,.44-.09.62-.45.62s-2.13-.18-5.14-.18c-2.66,0-4.61.18-5.05.18s-.53-.18-.53-.62v-.89c0-.27.08-.44.35-.44h1.24c.89,0,1.95-.09,2-1.07.09-.71,0-3.63,0-5.32V26.26c0-3-.18-5.14-1.77-6.65a4.85,4.85,0,0,0-3.55-1.5,6.63,6.63,0,0,0-5,2.21A4.76,4.76,0,0,0,136.25,23v11.7c0,1.69.18,2.22,1.16,2.22H139c.36,0,.62.09.62.44v.89c0,.35-.09.62-.44.62s-2.66-.18-5.14-.18c-2.66,0-4.7.18-5.23.18-.18,0-.36-.18-.36-.53v-1c0-.35.18-.44.8-.44h1.15c.89,0,1.69-.18,1.78-.89.17-1.06.17-6.91.17-10.46Z"></path><path class="cls-1" d="M158.06,35.84c-2.48-2.93-2.92-5-2.92-8.78a11.53,11.53,0,0,1,4.6-8.69,11,11,0,0,1,14.72.53,11.85,11.85,0,0,1,3.64,8.78,12.22,12.22,0,0,1-11.88,11.79A10.35,10.35,0,0,1,158.06,35.84Zm15.51-8.69c0-5.94-4.34-9.75-7.09-9.75a5.23,5.23,0,0,0-4.16,1.68c-2.13,2.13-2.84,4.35-2.84,8.42,0,3,.35,5.06,2,7.54a6,6,0,0,0,5.32,2.84c4.07.08,6.73-5,6.73-10.73Z"></path><path class="cls-1" d="M195.38,32.47c0,3.1.62,4,1.6,4a2.41,2.41,0,0,0,1.86-.8c.18-.27.35-.36.53-.18l.53.44c.18.18.27.45-.09,1a4.32,4.32,0,0,1-4.16,2.66c-2,0-3.37-1.42-3.81-3.64h-.09a11.45,11.45,0,0,1-5.32,3.28,12.91,12.91,0,0,1-3.19.36c-1.33,0-3.19-1.06-3.19-4.43,0-2.49,1.15-4.61,5.4-6.47a42.15,42.15,0,0,0,6.12-3.11V22.1a5.93,5.93,0,0,0-.8-3,3.72,3.72,0,0,0-3.19-1.15,5.43,5.43,0,0,0-3.46,1.15c-.79.71-.26,1.51-.26,2.48,0,1.87-.62,3.11-2.84,3.11-.89,0-1.24-.45-1.24-1.69,0-1.68,1.51-3.72,3.72-5.05a11.53,11.53,0,0,1,6.56-1.86,6,6,0,0,1,4.35,1.42c1.15,1.15,1.15,2.39,1.15,3.81l-.18,11.17Zm-3.9-5.41c-1.95,1.42-7.18,2.57-7.18,7A2.67,2.67,0,0,0,186.61,37h.44c1.59,0,4.43-1.86,4.43-3.37Z"></path><path class="cls-1" d="M205,9.6c0-3.28-.62-3.9-2.57-4.52l-.89-.36c-.36-.09-.36-.18-.36-.35V3.92c0-.17.18-.26.62-.53L207.35.47A2.94,2.94,0,0,1,208.59,0c.36,0,.53.45.44,1.33s-.17,11.88-.17,14.54v3.46h.26a10.17,10.17,0,0,1,7.36-3.46A7,7,0,0,1,221.8,18c2.39,2.21,2.3,5,2.3,7.89V29c0,3,.09,6.38.09,7.36,0,.62.89.8,1.95.8H227c.44,0,.62.08.62.44v.8c0,.44-.09.62-.44.62s-2.13-.18-5.14-.18c-2.66,0-4.61.18-5.06.18s-.53-.18-.53-.62v-.89c0-.27.09-.44.35-.44h1.25c.88,0,1.95-.09,2-1.07.09-.71,0-3.63,0-5.32V26.26c0-3-.17-5.14-1.77-6.65a4.81,4.81,0,0,0-3.54-1.5,6.51,6.51,0,0,0-5,2.21A4.75,4.75,0,0,0,208.77,23v11.7c0,1.69.18,2.22,1.15,2.22h1.6c.35,0,.62.09.62.44v.89c0,.35-.09.62-.45.62s-2.66-.18-5.14-.18c-2.66,0-4.7.18-5.23.18-.18,0-.35-.18-.35-.53v-1c0-.35.17-.44.79-.44h1.16c.88,0,1.68-.18,1.77-.89.18-1.06.18-6.91.18-10.46L205,9.6Z"></path><path class="cls-1" d="M8.24,66.77c0-2.39-.08-9.92-.08-10.63,0-1.07-.8-1.6-2.22-1.6H2.84a.33.33,0,0,1-.36-.35V52.77a.39.39,0,0,1,.36-.36c.17,0,1,.09,2.21.09s3.11.09,5.68.09c.88,0,19.77.09,20.65-.18.18.89,1.77,8.16,2.13,9.58.09.18,0,.35-.09.35l-1,.36c-.18.09-.27-.09-.45-.36a49.39,49.39,0,0,0-3.46-5,6.53,6.53,0,0,0-3.81-2.48c-1.33-.36-9.93-.45-11.52-.45,0,.71-.09,11.53-.09,14.81v2.66c.8,0,6.38-.18,7-.27,1.16-.18,1.86-.71,2.4-2.39.17-.53.35-1.69.53-2.66.09-.18.18-.36.35-.36l1.07.09a.39.39,0,0,1,.35.36c-.09.88-.09,5.4-.09,6.11,0,2,.18,4.52.27,5.59,0,.26-.09.35-.36.44l-1,.18c-.27.09-.36-.09-.36-.36-.08-.44-.44-2-.62-2.66a2.52,2.52,0,0,0-2.21-2.12,65.66,65.66,0,0,0-7.27-.36v1.95c0,1.6.09,10.64.09,11.44,0,1.42.26,1.68,2.12,1.68h2.66c.36,0,.45.09.45.36v1.33c0,.35-.09.44-.45.44-.53,0-2.66-.18-7.26-.18-4.17,0-6.21.18-7,.18a.32.32,0,0,1-.35-.35V88.94c0-.18.17-.27.35-.27h2.4c1.41,0,1.86-.18,1.86-1.15s.17-7.71.17-17Z"></path><path class="cls-1" d="M31.12,87.7c-2.49-2.93-2.93-5-2.93-8.78a11.54,11.54,0,0,1,4.61-8.69,11,11,0,0,1,14.72.53,11.8,11.8,0,0,1,3.63,8.78A12.22,12.22,0,0,1,39.27,91.33,10.33,10.33,0,0,1,31.12,87.7ZM46.63,79c0-5.94-4.34-9.75-7.09-9.75a5.24,5.24,0,0,0-4.17,1.68c-2.13,2.13-2.84,4.35-2.84,8.42a11.87,11.87,0,0,0,2,7.54,6,6,0,0,0,5.32,2.83C44.06,89.82,46.63,84.77,46.63,79Z"></path><path class="cls-1" d="M72.69,79.81c0,2.57,0,5.23.09,6.38.18,1.68.71,1.86,1.42,1.86A5.93,5.93,0,0,0,76,87.87c.45-.09.62,0,.62.18l.18.71c.09.35-.09.44-.27.53l-5.67,1.86a4.36,4.36,0,0,1-1.06.18c-.18,0-.45-.09-.54-.62l-.44-3.1H68.7a9.52,9.52,0,0,1-7.27,3.72,5.5,5.5,0,0,1-5-2.48C54.16,86,54.25,84.24,54.25,78.3V72.09c-.09-1.5-.79-1.86-2-2-.88-.08-1.15-.08-1.15-.35v-1c0-.36.09-.45.62-.45h4.79a1.7,1.7,0,0,0,.71-.09c.18,0,.44-.09.62-.09a.66.66,0,0,1,.62.54v.17c-.09.54-.18,3-.18,6.21v3.81c0,2.13-.53,5.59,1.15,8.07a4.52,4.52,0,0,0,4.26,2c1.42,0,3.63-1.42,4.61-2.66a2.78,2.78,0,0,0,.53-1.42V72c-.09-1.51-1-1.78-2.3-1.87-.89,0-1.16-.09-1.16-.35V68.9c0-.44.09-.53.62-.53h5a3,3,0,0,0,.89-.09,5.14,5.14,0,0,0,.62-.09.57.57,0,0,1,.53.45v.09a47.11,47.11,0,0,0-.27,7.09Z"></path><path class="cls-1" d="M99.46,87.87c0,.89.45,1.16,1.16,1.16h1.68c.53,0,.62.17.62.53v.88c0,.36-.09.62-.44.62s-2-.17-5.14-.17c-2.75,0-4.44.17-4.88.17s-.44-.17-.44-.62v-.88c0-.36.17-.53.71-.53h1.59c.62,0,1.07-.27,1.07-1.25.08-1.41.08-3.1.08-4.52V76.17c0-2.13,0-3.72-1.59-4.87a5.61,5.61,0,0,0-3.9-1,6.23,6.23,0,0,0-4.35,2.13,5.07,5.07,0,0,0-1.24,3.63V87.25c0,1.42.18,1.78,1.33,1.78h1.33c.45,0,.53.17.53.53v.88c0,.36-.08.54-.35.54s-1.86-.18-4.7-.18S78.1,91,77.74,91s-.35-.18-.35-.54v-1c0-.36.09-.53.53-.53h1.6c.71,0,1.06-.18,1.06-1.07V75.29a3.46,3.46,0,0,0-2.21-3.2L78,71.92c-.35-.18-.44-.36-.44-.54v-.26a.55.55,0,0,1,.44-.53L82.62,68a3.16,3.16,0,0,1,1-.36c.26,0,.35.18.44.62l.35,3.28h.09c1.6-2,4.7-3.9,7.36-3.9a8.55,8.55,0,0,1,4.61,1.15A7.83,7.83,0,0,1,99.38,74Z"></path><path class="cls-1" d="M120.92,58c0-2-.36-2.66-3.37-3.19-.36-.09-.36-.18-.36-.36v-.88c0-.18.09-.36.45-.36,2.12-.44,4.87-.88,5.94-1.15a8,8,0,0,1,1.24-.18c.35,0,.35.36.26,1-.17,2.66-.17,10.46-.17,17.28V82c0,2,.08,4.35.53,4.88a4,4,0,0,0,2.39.88c.8.09,1,.09,1.07.36l.08.44a.46.46,0,0,1-.35.62l-6,2.13a.56.56,0,0,1-.71-.35v-.09l-.71-2.4a12.42,12.42,0,0,1-7.89,2.93,7.55,7.55,0,0,1-6.38-2.48c-2.75-2.66-3.37-5.14-3.37-8.69a12.87,12.87,0,0,1,3.72-9.13,10.45,10.45,0,0,1,8-3.37,21.2,21.2,0,0,1,5.77.8Zm0,17a5.37,5.37,0,0,0-.45-2.66c-.79-1.42-2.48-2.93-5.67-2.93a7.08,7.08,0,0,0-4.88,1.95,10.48,10.48,0,0,0-2.48,7.19c0,6.11,4.17,10.46,7.27,10.46s5.32-1.6,5.85-2.93a6.8,6.8,0,0,0,.36-1.86Z"></path><path class="cls-1" d="M146,84.33c0,3.1.62,4.08,1.6,4.08a2.41,2.41,0,0,0,1.86-.8c.18-.27.36-.36.53-.18l.54.44c.17.18.26.45-.09,1a4.34,4.34,0,0,1-4.17,2.66c-2,0-3.37-1.42-3.81-3.64h-.09a11.45,11.45,0,0,1-5.32,3.28,12.85,12.85,0,0,1-3.19.36c-1.33,0-3.19-1.07-3.19-4.43,0-2.49,1.15-4.61,5.41-6.48a41.09,41.09,0,0,0,6.11-3.1V74a5.83,5.83,0,0,0-.8-3,3.68,3.68,0,0,0-3.19-1.15,5.38,5.38,0,0,0-3.45,1.15c-.8.71-.27,1.51-.27,2.48,0,1.87-.62,3.11-2.84,3.11-.88,0-1.33-.54-1.33-1.69,0-1.68,1.51-3.72,3.73-5a11.51,11.51,0,0,1,6.56-1.86c2.57,0,3.54.71,4.34,1.42,1.15,1.15,1.15,2.39,1.15,3.81L146,84.33Zm-3.9-5.41c-1.95,1.42-7.18,2.48-7.18,7a2.68,2.68,0,0,0,2.31,2.93h.44c1.6,0,4.43-1.86,4.43-3.37Z"></path><path class="cls-1" d="M156.91,84.06c0,4.08,1.86,4.7,2.75,4.7a7.06,7.06,0,0,0,3.54-.71.43.43,0,0,1,.62.09h0l.27.53c.18.18.09.44-.09.62h0a8.73,8.73,0,0,1-5.94,2.13c-2.66,0-5.23-2.48-5.23-4.61s.18-6.92.18-7.71V77.94c0-1,.09-4.61.09-6.82h-3.28c-.54,0-.8-.18-.8-.62s.35-.62,1-1c1.24-.71,5.41-5,6.12-6.73a.78.78,0,0,1,.8-.54c.44,0,.53.36.53.8l-.27,5.32h7.45c.36,0,.44.27.36.53l-.54,1.86c-.09.27-.17.45-.44.45h-6.91c-.09,2.48-.18,5.05-.18,7.53Z"></path><path class="cls-1" d="M169.58,75.11c0-1.86-.35-2.84-3-3.19-.35-.09-.44-.18-.44-.36V71c0-.18.09-.27.35-.35A38.75,38.75,0,0,0,172.33,68a3.16,3.16,0,0,1,1-.36c.26,0,.35.27.26.62-.08.89-.08,4.26-.08,8.78v5.85c0,2.13,0,4.08.08,4.61.09,1.06.27,1.42.89,1.42h2.48c.45,0,.53.17.53.53v.89c0,.35-.08.53-.44.53s-2.92-.18-5.14-.18c-3.1,0-5.23.18-5.85.18-.27,0-.44-.09-.44-.45V89.38c0-.35.17-.44.53-.44h2.66c.62,0,.8-.18.88-1.07.09-1.59.09-3.28.09-4.87Zm-2.39-16.4a3,3,0,0,1,3.28-2.84,2.68,2.68,0,0,1,2.84,2.48v.18a2.88,2.88,0,0,1-2.84,2.93h-.26a3,3,0,0,1-3-2.75Z"></path><path class="cls-1" d="M180.49,87.7c-2.48-2.93-2.93-5-2.93-8.78a11.57,11.57,0,0,1,4.61-8.69,11,11,0,0,1,14.72.53,11.8,11.8,0,0,1,3.63,8.78,12.22,12.22,0,0,1-11.88,11.79A10.34,10.34,0,0,1,180.49,87.7ZM196,79c0-5.94-4.34-9.75-7.09-9.75a5.25,5.25,0,0,0-4.17,1.68c-2.12,2.13-2.83,4.35-2.83,8.42,0,3,.35,5.06,2,7.54a6,6,0,0,0,5.32,2.83C193.34,89.82,196,84.77,196,79Z"></path><path class="cls-1" d="M223.57,87.87A1,1,0,0,0,224.72,89h1.69c.53,0,.62.17.62.53v.88c0,.36-.09.62-.44.62s-2-.17-5.15-.17c-2.74,0-4.43.17-4.87.17s-.44-.17-.44-.62v-.88c0-.36.17-.53.7-.53h1.6c.62,0,1-.27,1.06-1.25.09-1.41.09-3.1.09-4.52V76.17c0-2.13,0-3.72-1.59-4.87a5.62,5.62,0,0,0-3.9-1,6.23,6.23,0,0,0-4.35,2.13,5.07,5.07,0,0,0-1.24,3.63V87.25c0,1.42.18,1.78,1.33,1.78h1.33c.44,0,.53.17.53.53v.88c0,.36-.09.54-.35.54s-1.86-.18-4.7-.18-4.43.18-4.79.18-.35-.18-.35-.54v-1c0-.36.09-.53.53-.53h1.6c.71,0,1.06-.18,1.06-1.07V75.29a3.47,3.47,0,0,0-2.22-3.2l-.44-.17c-.35-.18-.44-.36-.44-.45v-.26c0-.27.17-.45.53-.53l4.61-2.58a3.36,3.36,0,0,1,1-.35c.27,0,.36.18.45.62l.35,3.28h.09c1.6-2,4.7-3.9,7.36-3.9a8.49,8.49,0,0,1,4.61,1.15A7.82,7.82,0,0,1,223.48,74Z"></path><path class="cls-2" d="M4.7,5.61C4.7,3.75,4.26,3,2.93,3H.44C.09,2.86,0,2.77,0,2.42V1.17C0,.82.09.73.53.73s3.1.18,8.25.18c4.52,0,7.09-.18,7.71-.18.35,0,.44.09.44.36V2.42c0,.35-.09.44-.44.44H14.27A2.43,2.43,0,0,0,11.61,5c-.09.62-.17,3.9-.17,7v6.65c0,2.66.08,6.47.17,8.15a13.29,13.29,0,0,0,1.86,6.65,8.59,8.59,0,0,0,7.27,3.28,11.09,11.09,0,0,0,7.18-2.57c2-2,3.11-5.14,3.11-9V15.45a99.55,99.55,0,0,0-.53-10.2,2.42,2.42,0,0,0-2.22-2.39h-2c-.36,0-.44-.18-.44-.36V1.17c0-.35.08-.44.44-.44.53,0,3,.18,6.56.18,3.28,0,5-.18,5.41-.18s.53.18.53.44V2.42c0,.35-.09.44-.36.44H36.52a2.08,2.08,0,0,0-2.21,1.95V4.9c-.09.62-.09,8.15-.09,8.86s-.09,10-.36,12.24c-.35,4.43-1.59,7.71-4.52,10.28a14,14,0,0,1-9.75,3.28,22.65,22.65,0,0,1-7.71-1.33,11.07,11.07,0,0,1-6.3-7.18c-.7-2.39-1-5.85-1-12.85Z"></path><path class="cls-2" d="M40.34,26.88c.17,0,.35.09.35.45a11.74,11.74,0,0,0,2,6.11,8.18,8.18,0,0,0,7.09,3.81c2.93,0,6.92-1.77,6.92-6.29,0-5-2.22-6.56-7.89-8.69A26.4,26.4,0,0,1,41,17.75c-1.77-1.68-2.66-4.34-2.66-7.62A9.12,9.12,0,0,1,42,2.68,10.79,10.79,0,0,1,49.64.11a17.5,17.5,0,0,1,6.74,1.33.84.84,0,0,0,1.15-.18l.71-.71A1.15,1.15,0,0,1,59,.2c.36,0,.44.35.44.89,0,.88.89,8.33.89,8.86a.33.33,0,0,1-.35.36l-.89.26a.39.39,0,0,1-.53-.26v-.09a15.15,15.15,0,0,0-3.28-5.68,7,7,0,0,0-5.59-2.21,5.67,5.67,0,0,0-6,5.4c0,1.87.17,3.46,1.5,4.79s4.43,2.66,6.56,3.28c3.1,1,5.68,2,7.71,4.17,1.69,1.77,2.66,4.08,2.66,7.62,0,6.56-4.25,11.88-11.34,11.88-4.44,0-6.92-1-9.13-2.57a2.46,2.46,0,0,0-1.33-.62c-.36,0-.54.44-.89,1s-.53.63-1,.63-.62-.36-.62-.89.89-9.31,1-9.93c.09-.35.09-.44.35-.44Z"></path><path class="cls-2" d="M98.67,30.07c.17.09.17.36.08.54-3.19,4.61-8.33,9-16,9-6.83,0-10.73-2-14-5.05C64.8,31,63,24.76,63,20.06A20.5,20.5,0,0,1,68.53,5.7,18.44,18.44,0,0,1,82.44,0,24.32,24.32,0,0,1,93.26,2.59c.71.45,1,.45,1.06,0l.45-1.42c.08-.35.17-.35.88-.35s.71.09.71.89c0,1,1.06,9.48,1.24,11.17.09.35,0,.53-.18.53l-1.06.35c-.26.09-.44-.09-.62-.53a18.94,18.94,0,0,0-4.17-6.91,12.65,12.65,0,0,0-9.3-4c-8.6,0-12.06,7.71-12.06,15.42,0,3.28,1,9.66,5,13.92,3.55,3.72,6.65,4.17,9.22,4.17a15.62,15.62,0,0,0,12.77-6.21c.26-.35.44-.53.62-.35Z"></path></g></g></g></g></svg> 