<svg xmlns="http://www.w3.org/2000/svg" viewBox="0 0 256.84 103.09"><defs><style>.cls-1{fill:#900;}</style></defs><title>Asset 1</title><g id="Layer_2" data-name="Layer 2"><g id="Layer_1-2" data-name="Layer 1"><path d="M122.72,41.62c-.73-.55-1.09-.73-1.39-.73s-.61.42-1,1-.67.73-1.09.73-.67-.3-.55-1c.24-1.52.85-9.22,1-11,.06-.36.18-.36.42-.36l.91.06c.24,0,.36.12.36.49a11.94,11.94,0,0,0,2.18,7,10.13,10.13,0,0,0,8.49,4.49c3.64,0,8.25-2.24,8.25-7.7,0-6.25-4.49-8.55-9.34-10.25-1.88-.67-6.25-2.18-8.86-4.91-2-2-3-4.85-3-8.86,0-3,1.88-6,3.76-7.76A12.07,12.07,0,0,1,131.39,0a17.49,17.49,0,0,1,7.16,1.52c.55.3.85.24,1.15-.06l.79-.73a1.18,1.18,0,0,1,.79-.36c.3,0,.49.48.49,1,0,2.12.79,8.31.85,9.65,0,.3-.06.42-.3.48l-.73.18a.25.25,0,0,1-.36-.18,14.76,14.76,0,0,0-3.76-6.73,8.47,8.47,0,0,0-6.61-2.61c-5.4,0-7.34,4-7.34,7.1a7.38,7.38,0,0,0,1.88,5.28c1.76,1.76,5.16,3.09,6.92,3.64,4.19,1.33,7.58,2.37,9.77,5,1.58,1.88,2.67,4.25,2.67,8.25,0,7.16-4.37,13.29-12.38,13.29A14.93,14.93,0,0,1,122.72,41.62Z"/><path d="M149.41,10.8c0-3.7-.73-4.37-2.91-5.1l-1-.36c-.36-.12-.42-.18-.42-.36V4.43c0-.24.18-.3.73-.61L152.08.49A3.2,3.2,0,0,1,153.48,0c.36,0,.61.49.49,1.52s-.18,13.35-.18,16.38v3.88h.3a11.57,11.57,0,0,1,8.31-3.94,8,8,0,0,1,6,2.43c2.73,2.55,2.61,5.64,2.61,8.92v3.46c0,3.4.12,7.16.12,8.31,0,.73,1,.91,2.24.91h1c.49,0,.67.12.67.55v.91c0,.49-.12.73-.49.73s-2.37-.18-5.82-.18c-3,0-5.16.18-5.7.18s-.55-.18-.55-.67v-1c0-.3.06-.49.42-.49h1.39c1,0,2.24-.12,2.31-1.15.06-.85,0-4.06,0-6V29.79c0-3.4-.24-5.82-2-7.46a5.56,5.56,0,0,0-4-1.7A7.41,7.41,0,0,0,155,23.17a5.29,5.29,0,0,0-1.21,3V39.37c0,1.94.18,2.49,1.34,2.49h1.82c.42,0,.67.12.67.49v1c0,.43-.12.67-.49.67s-3-.18-5.76-.18c-3,0-5.34.18-5.89.18-.24,0-.42-.18-.42-.61V42.35c0-.42.24-.49.91-.49h1.27c1,0,1.88-.24,2-1,.18-1.15.18-7.83.18-11.77Z"/><path d="M178.28,40.4c-2.79-3.34-3.33-5.58-3.33-9.89a12.9,12.9,0,0,1,5.22-9.77,13.13,13.13,0,0,1,8.13-2.91,12.85,12.85,0,0,1,8.49,3.52,13.47,13.47,0,0,1,4.12,9.89c0,6.61-5.95,13.34-13.41,13.34A12.23,12.23,0,0,1,178.28,40.4Zm17.53-9.77c0-6.73-4.91-11-8-11a5.85,5.85,0,0,0-4.67,1.94c-2.37,2.43-3.22,4.91-3.22,9.53,0,3.4.37,5.7,2.31,8.49a6.72,6.72,0,0,0,6,3.15C192.84,42.77,195.81,37.13,195.81,30.64Z"/><path d="M220.44,36.64c0,3.46.73,4.55,1.82,4.55a2.79,2.79,0,0,0,2.12-.91c.24-.3.37-.42.61-.24l.61.48c.18.18.3.49-.06,1.09a5,5,0,0,1-4.73,3c-2.18,0-3.76-1.58-4.31-4.06h-.12a13.09,13.09,0,0,1-6,3.7,11.4,11.4,0,0,1-3.58.36c-1.46,0-3.64-1.21-3.64-5,0-2.79,1.27-5.22,6.07-7.34,2.73-1.21,5.88-2.67,6.85-3.52V24.81c-.12-1-.18-2.61-.85-3.4a4.61,4.61,0,0,0-3.64-1.34,6.79,6.79,0,0,0-3.94,1.27c-.85.79-.3,1.7-.3,2.79,0,2.12-.73,3.46-3.22,3.46-1,0-1.45-.55-1.45-1.94,0-1.94,1.7-4.25,4.18-5.7a13.38,13.38,0,0,1,7.4-2.12c2.85,0,4,.85,4.85,1.64,1.27,1.27,1.34,2.67,1.34,4.31V36.64ZM216,30.51c-2.18,1.64-8.13,2.85-8.13,7.89A3,3,0,0,0,211,41.74c1.76,0,5-2.12,5-3.76Z"/><path d="M231.18,10.8c0-3.7-.73-4.37-2.91-5.1l-1-.36c-.36-.12-.42-.18-.42-.36V4.43c0-.24.18-.3.73-.61L233.84.48a3.2,3.2,0,0,1,1.4-.48c.36,0,.61.48.48,1.52s-.18,13.35-.18,16.38v3.88h.3a11.58,11.58,0,0,1,8.31-3.94,8,8,0,0,1,6,2.43c2.73,2.55,2.61,5.64,2.61,8.92v3.46c0,3.4.12,7.16.12,8.31,0,.73,1,.91,2.25.91h1c.48,0,.67.12.67.55v.91c0,.49-.12.73-.49.73s-2.37-.18-5.82-.18c-3,0-5.16.18-5.7.18s-.55-.18-.55-.67v-1c0-.3.06-.49.42-.49h1.4c1,0,2.25-.12,2.31-1.15.06-.85,0-4.06,0-6V29.79c0-3.4-.24-5.82-2-7.46a5.56,5.56,0,0,0-4-1.7,7.41,7.41,0,0,0-5.64,2.55,5.28,5.28,0,0,0-1.21,3V39.37c0,1.94.18,2.49,1.33,2.49h1.82c.42,0,.67.12.67.49v1c0,.43-.12.67-.49.67s-3-.18-5.76-.18c-3,0-5.34.18-5.89.18-.24,0-.42-.18-.42-.61V42.35c0-.42.25-.49.91-.49H229c1,0,1.88-.24,2-1,.18-1.15.18-7.83.18-11.77Z"/><path d="M9.3,75.3c0-2.67-.12-11.22-.12-12,0-1.15-.85-1.76-2.49-1.76H3.17c-.24,0-.42-.12-.42-.36V59.59c0-.24.18-.36.42-.36s1.09.06,2.49.06,3.46.12,6.37.12c1,0,22.32.06,23.3-.24.18,1,2,9.22,2.43,10.8.06.24,0,.36-.12.42l-1.09.42c-.18.06-.3-.06-.49-.42-.55-1-2.12-3.22-3.88-5.58A7.41,7.41,0,0,0,27.92,62c-1.52-.37-11.16-.55-13-.55,0,.79-.06,13-.06,16.68v3c.85,0,7.22-.18,7.95-.3,1.33-.24,2.12-.79,2.67-2.67.18-.61.42-1.88.61-3,.06-.24.18-.43.42-.43l1.21.06c.24,0,.36.18.36.42-.12,1-.12,6.07-.12,6.92,0,2.18.18,5.09.3,6.31,0,.3-.12.43-.42.49l-1.15.24c-.3.06-.36-.12-.42-.43-.06-.48-.49-2.3-.67-3a2.82,2.82,0,0,0-2.49-2.37,78.39,78.39,0,0,0-8.25-.37v2.24c0,1.82.06,12,.06,12.92,0,1.64.3,1.94,2.37,1.94h3c.36,0,.55.12.55.36v1.52c0,.36-.12.49-.49.49-.61,0-3-.18-8.25-.18-4.73,0-7,.18-7.95.18-.24,0-.37-.12-.37-.43v-1.64c0-.24.18-.3.43-.3H6.93c1.58,0,2.06-.24,2.12-1.34S9.3,90,9.3,79.54Z"/><path d="M35.09,98.9c-2.79-3.34-3.34-5.58-3.34-9.89A12.9,12.9,0,0,1,37,79.24a13.12,13.12,0,0,1,8.13-2.91,12.84,12.84,0,0,1,8.49,3.52,13.47,13.47,0,0,1,4.12,9.89c0,6.61-5.94,13.35-13.41,13.35A12.23,12.23,0,0,1,35.09,98.9Zm17.53-9.77c0-6.74-4.91-11-8-11a5.85,5.85,0,0,0-4.67,1.94c-2.36,2.43-3.21,4.91-3.21,9.52,0,3.4.36,5.7,2.3,8.5a6.72,6.72,0,0,0,6,3.15C49.65,101.26,52.62,95.62,52.62,89.13Z"/><path d="M82,90c0,2.91,0,5.88.12,7.16.18,1.88.85,2.13,1.58,2.13a8.89,8.89,0,0,0,2-.18c.49-.12.67,0,.73.24l.18.79c.06.36-.06.48-.3.55l-6.37,2.12a3.59,3.59,0,0,1-1.21.24c-.24,0-.49-.12-.55-.73l-.49-3.52h-.12a11.08,11.08,0,0,1-8.25,4.25,6.35,6.35,0,0,1-5.7-2.79c-2.49-3.21-2.37-5.22-2.37-11.89v-7c-.06-1.7-.91-2.12-2.3-2.3-1-.06-1.34-.12-1.34-.43V77.54c0-.36.12-.49.67-.49h5.4a3.21,3.21,0,0,0,.85-.12c.24,0,.49-.06.67-.06a.63.63,0,0,1,.67.73c-.06.55-.24,3.4-.24,7v4.31c0,2.43-.61,6.31,1.33,9.1a5.08,5.08,0,0,0,4.85,2.31c1.64,0,4.06-1.58,5.22-3a3.3,3.3,0,0,0,.61-1.64V81.18c-.12-1.7-1.09-2-2.61-2.12-1,0-1.33-.12-1.33-.43v-1c0-.49.12-.55.73-.55H80a4.87,4.87,0,0,0,1-.12c.31,0,.55-.06.73-.06a.52.52,0,0,1,.55.61A54,54,0,0,0,82,85.55Z"/><path d="M112.2,99.08c0,1,.54,1.27,1.33,1.27h1.94c.55,0,.67.18.67.55v1c0,.42-.12.67-.48.67s-2.31-.18-5.77-.18c-3.09,0-5,.18-5.46.18s-.48-.18-.48-.67v-1c0-.43.18-.55.79-.55h1.76c.67,0,1.15-.3,1.21-1.4.06-1.58.12-3.52.12-5.1v-8c0-2.43,0-4.19-1.76-5.46a6.66,6.66,0,0,0-4.43-1.09,7.11,7.11,0,0,0-4.91,2.36,6,6,0,0,0-1.4,4.13V98.35c0,1.64.18,2,1.46,2H98.3c.48,0,.61.18.61.61v1c0,.36-.12.55-.42.55s-2.06-.18-5.28-.18-5,.18-5.4.18-.43-.18-.43-.55V100.9c0-.36.12-.55.61-.55h1.76c.79,0,1.21-.18,1.21-1.21V84.95a3.74,3.74,0,0,0-2.49-3.58L88,81.12c-.43-.18-.48-.36-.48-.55v-.3c0-.3.24-.49.54-.61l5.22-2.91a3.23,3.23,0,0,1,1.09-.42c.3,0,.42.24.49.73l.42,3.7h.12c1.76-2.18,5.28-4.43,8.31-4.43a9.36,9.36,0,0,1,5.16,1.33,8.84,8.84,0,0,1,3.34,5.76Z"/><path d="M136.4,65.41c0-2.31-.42-3-3.82-3.58-.36-.06-.42-.18-.42-.42v-1c0-.24.12-.37.48-.42,2.37-.49,5.52-1,6.67-1.27.55-.06,1-.18,1.4-.18s.37.43.3,1.09c-.18,3-.24,11.83-.24,19.54V92.53c0,2.24.12,4.91.6,5.52a4.53,4.53,0,0,0,2.67,1c.85.06,1.09.12,1.21.42l.12.48c.06.37-.06.55-.43.67L138.11,103a.59.59,0,0,1-.79-.49l-.79-2.67c-1.94,1.94-5.82,3.28-8.92,3.28a8.4,8.4,0,0,1-7.16-2.79c-3.09-3-3.82-5.77-3.82-9.83a14.46,14.46,0,0,1,4.25-10.31,12.2,12.2,0,0,1,9-3.82,22.58,22.58,0,0,1,6.49.91Zm0,19.23a6,6,0,0,0-.54-3c-.85-1.64-2.79-3.28-6.37-3.28A7.48,7.48,0,0,0,124,80.58a11.59,11.59,0,0,0-2.79,8.07c0,6.86,4.73,11.83,8.25,11.83s6-1.76,6.61-3.34a5.69,5.69,0,0,0,.36-2.06Z"/><path d="M164.74,95.14c0,3.46.73,4.55,1.82,4.55a2.78,2.78,0,0,0,2.12-.91c.24-.3.37-.42.61-.24l.61.48c.18.18.3.49-.06,1.09a5,5,0,0,1-4.73,3c-2.19,0-3.76-1.58-4.31-4.06h-.12a13.06,13.06,0,0,1-6,3.7,11.37,11.37,0,0,1-3.58.37c-1.46,0-3.64-1.21-3.64-5,0-2.79,1.27-5.22,6.06-7.34,2.73-1.21,5.89-2.67,6.86-3.52V83.31c-.12-1-.18-2.61-.85-3.4a4.61,4.61,0,0,0-3.64-1.34,6.81,6.81,0,0,0-3.94,1.27c-.85.79-.3,1.7-.3,2.79,0,2.12-.73,3.46-3.22,3.46-1,0-1.46-.55-1.46-1.94,0-1.94,1.7-4.25,4.19-5.7a13.39,13.39,0,0,1,7.4-2.12c2.85,0,4,.85,4.85,1.64,1.28,1.27,1.33,2.67,1.33,4.31V95.14ZM160.31,89c-2.18,1.64-8.13,2.85-8.13,7.89a3,3,0,0,0,3.15,3.34c1.76,0,5-2.12,5-3.76Z"/><path d="M177,94.77c0,4.55,2.06,5.34,3.15,5.34a8.78,8.78,0,0,0,4-.79.5.5,0,0,1,.73.12l.3.55a.48.48,0,0,1-.12.67,10.22,10.22,0,0,1-6.74,2.43c-3,0-5.88-2.85-5.88-5.16,0-2.49.18-7.83.18-8.68V87.92c0-1.09.06-5.16.12-7.71H169c-.55,0-.91-.24-.91-.73s.36-.67,1.09-1.09c1.45-.85,6.13-5.58,6.92-7.64a.81.81,0,0,1,.85-.61c.48,0,.61.42.61.91l-.3,6h8.43c.36,0,.54.3.42.55l-.61,2.12c-.06.3-.18.49-.54.49h-7.83c-.12,2.79-.18,5.7-.18,8.49Z"/><path d="M191.32,84.7c0-2.06-.36-3.15-3.4-3.64-.42-.06-.54-.18-.54-.42v-.55c0-.18.12-.3.43-.42a49.65,49.65,0,0,0,6.55-3,2.52,2.52,0,0,1,1.15-.36c.31,0,.37.3.31.73-.12,1-.12,4.85-.12,9.89v6.61c0,2.37,0,4.55.06,5.22.12,1.15.3,1.58,1,1.58h2.79c.48,0,.61.18.61.55v1c0,.42-.12.61-.54.61s-3.28-.18-5.82-.18c-3.52,0-5.88.18-6.55.18-.31,0-.48-.12-.48-.49v-1.21c0-.37.18-.48.61-.48h3c.67,0,.91-.24,1-1.21.06-1.82.06-3.7.06-5.52Zm-2.73-18.5c0-1.52,1.27-3.16,3.7-3.16a3,3,0,0,1,3.16,3,3.29,3.29,0,0,1-3.52,3.34A3.45,3.45,0,0,1,188.59,66.2Z"/><path d="M203.57,98.9c-2.79-3.34-3.34-5.58-3.34-9.89a12.9,12.9,0,0,1,5.22-9.77,13.13,13.13,0,0,1,8.13-2.91,12.84,12.84,0,0,1,8.49,3.52,13.48,13.48,0,0,1,4.13,9.89c0,6.61-5.94,13.35-13.41,13.35A12.23,12.23,0,0,1,203.57,98.9Zm17.53-9.77c0-6.74-4.91-11-8-11a5.85,5.85,0,0,0-4.67,1.94c-2.37,2.43-3.22,4.91-3.22,9.52,0,3.4.37,5.7,2.31,8.5a6.72,6.72,0,0,0,6,3.15C218.13,101.26,221.1,95.62,221.1,89.13Z"/><path d="M252.17,99.08c0,1,.55,1.27,1.33,1.27h1.94c.55,0,.67.18.67.55v1c0,.42-.12.67-.49.67s-2.31-.18-5.76-.18c-3.09,0-5,.18-5.46.18s-.48-.18-.48-.67v-1c0-.43.18-.55.79-.55h1.76c.67,0,1.15-.3,1.21-1.4.06-1.58.12-3.52.12-5.1v-8c0-2.43,0-4.19-1.76-5.46a6.66,6.66,0,0,0-4.43-1.09,7.11,7.11,0,0,0-4.91,2.36,6,6,0,0,0-1.4,4.13V98.35c0,1.64.18,2,1.46,2h1.52c.49,0,.61.18.61.61v1c0,.36-.12.55-.42.55s-2.06-.18-5.28-.18-5,.18-5.4.18-.42-.18-.42-.55V100.9c0-.36.12-.55.61-.55h1.76c.79,0,1.21-.18,1.21-1.21V84.95a3.74,3.74,0,0,0-2.49-3.58l-.49-.24c-.42-.18-.48-.36-.48-.54v-.3c0-.3.24-.49.55-.61l5.22-2.91a3.21,3.21,0,0,1,1.09-.42c.3,0,.42.24.48.73l.43,3.7h.12c1.76-2.18,5.28-4.43,8.31-4.43a9.34,9.34,0,0,1,5.16,1.33,8.84,8.84,0,0,1,3.34,5.76Z"/><path class="cls-1" d="M5.31,6.26c0-2.05-.48-3-2.05-3H.48C.12,3.24,0,3.12,0,2.7V1.31C0,.95.12.83.6.83S4.1,1,9.9,1c5.07,0,8-.18,8.69-.18.36,0,.48.12.48.42V2.76c0,.36-.12.48-.48.48H16.06c-1.81,0-2.9,1.08-3,2.35-.06.73-.18,4.35-.18,7.85v7.49c0,3,.06,7.3.18,9.23.18,2.78.67,5.55,2.11,7.48a10,10,0,0,0,8.21,3.74,12.72,12.72,0,0,0,8.09-2.89c2.3-2.29,3.5-5.79,3.5-10.2V17.42A111.4,111.4,0,0,0,34.34,5.9c-.18-1.57-1.15-2.65-2.47-2.65H29.7c-.36,0-.48-.18-.48-.42V1.31c0-.36.12-.48.48-.48.6,0,3.38.18,7.36.18C40.8,1,42.73.83,43.21.83s.61.18.61.48V2.7c0,.36-.06.54-.36.54H41.28a2.39,2.39,0,0,0-2.53,2.35c-.12.73-.12,9.18-.12,10s-.12,11.34-.36,13.76c-.36,5-1.81,8.69-5.07,11.59a16.27,16.27,0,0,1-11,3.74,24.77,24.77,0,0,1-8.69-1.45A12.3,12.3,0,0,1,6.4,35.1c-.84-2.65-1.08-6.63-1.08-14.54Z"/><path class="cls-1" d="M45.51,30.28c.24,0,.36.12.36.48a14,14,0,0,0,2.3,6.88,9.37,9.37,0,0,0,8,4.34c3.26,0,7.85-2,7.85-7.06,0-5.56-2.54-7.36-8.93-9.78a28.58,28.58,0,0,1-8.81-5.07c-2.05-1.93-3-4.95-3-8.63A10.24,10.24,0,0,1,47.44,3,12.33,12.33,0,0,1,56,.1a19,19,0,0,1,7.6,1.45,1,1,0,0,0,1.27-.19l.79-.78a1.09,1.09,0,0,1,.84-.36c.36,0,.48.36.48,1,0,1,1,9.42,1,10a.4.4,0,0,1-.36.42l-1,.3a.46.46,0,0,1-.6-.36,17.39,17.39,0,0,0-3.74-6.4A7.93,7.93,0,0,0,56,2.64a6.44,6.44,0,0,0-6.76,6.1c0,2.05.24,3.86,1.69,5.43s4.95,3,7.36,3.74c3.5,1.09,6.4,2.3,8.69,4.71,1.93,2,3,4.58,3,8.63,0,7.36-4.83,13.4-12.79,13.4-5,0-7.85-1.09-10.26-2.9-.73-.48-1.09-.72-1.45-.72s-.6.48-1,1.09-.6.72-1.09.72-.73-.36-.73-1,1-10.5,1.08-11.23c.06-.36.12-.49.36-.49Z"/><path class="cls-1" d="M111.3,33.9a.47.47,0,0,1,.12.6c-3.62,5.19-9.42,10.14-18,10.14-7.72,0-12.07-2.29-15.81-5.67-4.47-4-6.52-11-6.52-16.3A23.4,23.4,0,0,1,77.26,6.5C80.52,3,85.71.1,92.95.1A26.35,26.35,0,0,1,105.14,3c.84.48,1.09.48,1.21,0l.48-1.57c.12-.36.24-.36,1-.36s.85.12.85,1c0,1.09,1.21,10.74,1.45,12.55.06.37,0,.55-.24.61l-1.15.36c-.3.12-.49-.12-.66-.6a21.45,21.45,0,0,0-4.71-7.85,14.39,14.39,0,0,0-10.5-4.46c-9.66,0-13.64,8.69-13.64,17.38,0,3.74,1.09,10.87,5.56,15.69,4,4.23,7.48,4.71,10.38,4.71a17.61,17.61,0,0,0,14.43-7c.3-.42.54-.6.72-.42Z"/></g></g></svg>